<?xml version="1.0" encoding="UTF-8"?>
<svg version="1.1" xmlns="http://www.w3.org/2000/svg" width="500" height="500">
<path d="M0 0 C0.69738281 0.00451172 1.39476562 0.00902344 2.11328125 0.01367188 C3.82555803 0.0253998 5.53779033 0.04333347 7.25 0.0625 C7.25 0.7225 7.25 1.3825 7.25 2.0625 C8.5184375 2.31 8.5184375 2.31 9.8125 2.5625 C16.30691402 5.39642612 20.57537084 11.53561777 23.55859375 17.8515625 C24.39188767 20.51621989 24.54189883 22.96491095 24.6875 25.75 C24.90752659 29.93050515 24.99841111 30.76182059 27.8125 34.125 C29.0190625 35.0840625 29.0190625 35.0840625 30.25 36.0625 C30.25 36.7225 30.25 37.3825 30.25 38.0625 C30.91 38.0625 31.57 38.0625 32.25 38.0625 C33.06498562 39.6654053 33.87689927 41.26987278 34.6875 42.875 C35.13996094 43.76832031 35.59242188 44.66164062 36.05859375 45.58203125 C39.1401077 51.99764227 39.40955905 59.47695434 37.125 66.25 C33.50420728 74.43030947 28.51013632 79.56320589 20.25 83.0625 C12.87386998 85.31114546 5.10639792 84.53898345 -1.75 81.0625 C-4.66396661 78.96444404 -7.36761612 76.75647632 -9.75 74.0625 C-9.75 73.4025 -9.75 72.7425 -9.75 72.0625 C-10.41 72.0625 -11.07 72.0625 -11.75 72.0625 C-16.06432174 61.75820478 -16.06432174 61.75820478 -15.5 56.3125 C-15.33916246 53.39667104 -15.41736736 52.45315947 -17.33984375 50.1953125 C-18.74976644 49.01381304 -20.18571838 47.86276234 -21.64453125 46.7421875 C-28.03391466 41.64490575 -30.17257855 35.32098317 -31.25 27.375 C-31.06841601 19.62741646 -25.78411401 11.65490861 -20.75 6.0625 C-18.53125 4.515625 -18.53125 4.515625 -16.25 3.3125 C-15.4971875 2.90515625 -14.744375 2.4978125 -13.96875 2.078125 C-9.32155639 -0.04911151 -5.05754022 -0.06214369 0 0 Z M-15.55078125 16.296875 C-19.68912917 23.171661 -19.68912917 23.171661 -19.75 31.0625 C-17.8590817 36.31505082 -15.08055443 38.79052554 -10.75 42.0625 C-10.39808594 41.60359375 -10.04617187 41.1446875 -9.68359375 40.671875 C-2.84009435 32.16663815 3.66827974 30.38304309 14.25 29.0625 C14.65020075 22.45918758 12.43241173 18.98866624 8.25 14.0625 C3.77783496 10.63037334 -0.62064436 10.71040941 -6.06640625 10.6640625 C-10.33872344 11.29838034 -12.85432062 12.95115813 -15.55078125 16.296875 Z M20.25 42.0625 C19.35614377 43.13032824 18.48535641 44.21750093 17.625 45.3125 C10.99292553 53.03691614 4.03762081 53.94391477 -5.75 55.0625 C-5.48320527 61.06538137 -4.94220068 65.44033002 -0.75 70.0625 C3.57010876 73.13734459 7.90749032 74.75331256 13.234375 74.44921875 C18.15733244 73.50469785 21.9706495 71.24084914 25.625 67.875 C28.16419198 63.48024464 29.76798567 59.03012624 28.875 53.9140625 C27.26619931 49.14250591 24.69707454 45.69099952 21.25 42.0625 C20.92 42.0625 20.59 42.0625 20.25 42.0625 Z " fill="#FAFCF9" transform="translate(117.75,207.9375)"/>
<path d="M0 0 C2.625 0.3125 2.625 0.3125 4.24609375 1.94140625 C5.97093682 4.90735454 6.12709103 7.15097495 6.3125 10.5625 C6.41111328 12.17898437 6.41111328 12.17898437 6.51171875 13.828125 C6.54910156 14.64796875 6.58648437 15.4678125 6.625 16.3125 C7.20765625 16.15523437 7.7903125 15.99796875 8.390625 15.8359375 C13.9245691 14.53952402 18.00312843 14.60050927 22.875 17.5 C28.98407748 21.79189592 32.32809989 26.9386965 33.625 34.3125 C33.30315092 39.9292856 30.77488035 44.76267283 27.625 49.3125 C22.38802164 53.4584412 18.43438366 54.69292378 11.77734375 54.59375 C5.65495956 53.79372884 0.33720259 50.11652688 -3.375 45.3125 C-5.77878009 38.37011416 -5.68165747 31.51642386 -5.63574219 24.22119141 C-5.62498638 22.18492103 -5.63570179 20.14952546 -5.6484375 18.11328125 C-5.64585937 16.81519531 -5.64328125 15.51710937 -5.640625 14.1796875 C-5.63836914 13.00519043 -5.63611328 11.83069336 -5.63378906 10.62060547 C-4.85290424 0.63854003 -4.85290424 0.63854003 0 0 Z M5.625 30.3125 C4.96061933 34.96316471 5.03648428 37.13546856 7.125 41.3125 C10.15421922 43.73587538 11.91277833 44.05888885 15.71875 43.7890625 C17.88693811 43.38766356 17.88693811 43.38766356 20.125 41.3125 C22.19842659 37.16564682 22.21151804 34.93132953 21.625 30.3125 C20.22814994 27.6655128 20.22814994 27.6655128 17.625 26.3125 C12.30857446 25.53920174 9.10791507 26.09078476 5.625 30.3125 Z " fill="#FCFCFC" transform="translate(174.375,237.6875)"/>
<path d="M0 0 C2.01806759 37.84413453 2.01806759 37.84413453 -2.5 45.5625 C-4 47 -4 47 -6 47 C-6 47.66 -6 48.32 -6 49 C-11.52985288 52.84017561 -16.32630947 53.49583644 -23 53 C-27.78961487 51.83180125 -31.74080329 48.63683663 -35 45 C-38.17194541 38.68741128 -37.7978511 31.86287749 -35.9375 25.1875 C-32.83722734 20.08705143 -28.54289068 16.3068678 -23 14 C-21 13.76953125 -21 13.76953125 -19 13.8125 C-18.34 13.81894531 -17.68 13.82539063 -17 13.83203125 C-14.91148705 14.0074337 -13.0159298 14.43751959 -11 15 C-10.91363281 14.09636719 -10.82726562 13.19273437 -10.73828125 12.26171875 C-10.59777344 11.08222656 -10.45726562 9.90273437 -10.3125 8.6875 C-10.18488281 7.51574219 -10.05726563 6.34398437 -9.92578125 5.13671875 C-9 2 -9 2 -6.66796875 0.01953125 C-3.73069447 -1.10291178 -2.89028689 -0.88875648 0 0 Z M-24.375 26.625 C-26.37108249 29.54235134 -26.8560483 31.47318331 -27 35 C-26.07417343 38.13356684 -25.31531305 39.68468695 -23 42 C-18.81765497 42.69436616 -15.15800739 42.6496139 -11.4375 40.5625 C-9.33844206 36.82070106 -9.33431124 33.20312789 -10 29 C-11.72226496 25.75150023 -11.72226496 25.75150023 -15 25 C-19.99287391 24.52332196 -19.99287391 24.52332196 -24.375 26.625 Z " fill="#FDFDFD" transform="translate(329,239)"/>
<path d="M0 0 C5.75 1.75 5.75 1.75 8 4 C8.6328125 6.8203125 8.6328125 6.8203125 9.125 10.125 C9.29257812 11.22070312 9.46015625 12.31640625 9.6328125 13.4453125 C9.75398438 14.28835937 9.87515625 15.13140625 10 16 C10.556875 15.89300781 11.11375 15.78601563 11.6875 15.67578125 C17.53371222 14.75737291 21.79625124 15.06221624 27 18 C31.13477009 21.30781608 33.58978385 24.91182618 35 30 C35.34748416 33.82268068 35.28479084 37.6032432 35.1875 41.4375 C35.16719727 42.96407227 35.16719727 42.96407227 35.14648438 44.52148438 C35.1113661 47.01488214 35.06218559 49.50715512 35 52 C31.78832601 53.73252349 29.68142974 54.2984943 26 54 C24.40094863 52.40094863 24.81627166 50.66224586 24.75390625 48.44921875 C24.72103516 47.52302734 24.68816406 46.59683594 24.65429688 45.64257812 C24.59346631 43.68435152 24.53613146 41.72601297 24.48242188 39.76757812 C24.44826172 38.83751953 24.41410156 37.90746094 24.37890625 36.94921875 C24.3538501 36.09674561 24.32879395 35.24427246 24.30297852 34.3659668 C23.974165 31.79825387 23.40833956 30.16697469 22 28 C17.96362635 26.11635896 15.27242501 25.74340441 11 27 C10.13769017 30.02201192 9.83023018 32.81205978 9.71875 35.94921875 C9.68136719 36.87927734 9.64398438 37.80933594 9.60546875 38.76757812 C9.53473351 40.72589623 9.46442603 42.68422984 9.39453125 44.64257812 C9.35714844 45.56876953 9.31976563 46.49496094 9.28125 47.44921875 C9.23581055 48.72285278 9.23581055 48.72285278 9.18945312 50.0222168 C9 52 9 52 8 53 C6.48071962 53.07179964 4.95832518 53.08392007 3.4375 53.0625 C2.61121094 53.05347656 1.78492188 53.04445313 0.93359375 53.03515625 C0.29550781 53.02355469 -0.34257812 53.01195312 -1 53 C-1.80312819 47.3444554 -2.15969671 41.86083945 -2.16796875 36.15234375 C-2.17129715 35.33681534 -2.17462555 34.52128693 -2.17805481 33.68104553 C-2.1830838 31.96925414 -2.18546439 30.25745307 -2.18530273 28.5456543 C-2.18749698 25.94107908 -2.20571662 23.33692285 -2.22460938 20.73242188 C-2.2275427 19.05989727 -2.2295279 17.38737067 -2.23046875 15.71484375 C-2.23765427 14.94486557 -2.24483978 14.17488739 -2.25224304 13.38157654 C-2.23201615 8.55310941 -1.52915566 4.58519426 0 0 Z " fill="#FDFDFD" transform="translate(336,238)"/>
<path d="M0 0 C2.96175123 0.61277612 4.38058783 1.25372522 7 3 C7 3.66 7 4.32 7 5 C7.66 5 8.32 5 9 5 C9.81498562 6.6029053 10.62689927 8.20737278 11.4375 9.8125 C12.11619141 11.15248047 12.11619141 11.15248047 12.80859375 12.51953125 C15.8901077 18.93514227 16.15955905 26.41445434 13.875 33.1875 C10.25420728 41.36780947 5.26013632 46.50070589 -3 50 C-10.37613002 52.24864546 -18.14360208 51.47648345 -25 48 C-27.91396661 45.90194404 -30.61761612 43.69397632 -33 41 C-33 40.34 -33 39.68 -33 39 C-33.66 39 -34.32 39 -35 39 C-39.68457083 27.43496577 -39.68457083 27.43496577 -39 21 C-38.67 20.34 -38.34 19.68 -38 19 C-35.03 19.33 -32.06 19.66 -29 20 C-28.89042969 20.74765625 -28.78085938 21.4953125 -28.66796875 22.265625 C-28.50941406 23.25046875 -28.35085937 24.2353125 -28.1875 25.25 C-28.03667969 26.22453125 -27.88585937 27.1990625 -27.73046875 28.203125 C-26.96331725 31.14045372 -25.88241663 32.66889777 -24 35 C-24 35.66 -24 36.32 -24 37 C-17.88472475 39.47916564 -12.30703103 41.47910496 -5.8046875 39.24609375 C-1.06595484 37.01661621 1.87804259 35.07928528 3.71875 30.02734375 C5.15168206 25.05472834 5.15651461 21.59251523 3.07421875 16.84375 C1.9652245 14.94031259 0.7308722 13.43855575 -0.75 11.8125 C-3 9 -3 9 -2.9375 6.375 C-2.06703464 4.1698211 -1.15138697 2.07249655 0 0 Z " fill="#8DC137" transform="translate(141,241)"/>
<path d="M0 0 C5.42922999 3.34106461 7.54610945 7.02775868 9.49609375 13.08984375 C10.48804255 18.81854028 8.69945541 23.22335131 5.73046875 28.07421875 C2.28643181 32.59985406 -1.47282349 34.79093014 -7 36 C-13.10277559 36.77671689 -17.82555173 35.13573507 -23 32 C-27.18634006 28.48266344 -29.07784718 24.34848633 -30 19 C-29.98805529 12.84847481 -28.55895157 7.58566296 -24.12890625 3.109375 C-16.42112113 -3.8488457 -9.35266117 -4.66680649 0 0 Z M-18 11 C-19.23955403 14.51687421 -19.38528879 17.77991885 -18.25 21.375 C-16.91791442 23.28677108 -16.91791442 23.28677108 -14 25 C-10.98417825 25.33509131 -8.90206032 25.55471978 -6 25 C-3.36316238 22.8905299 -2.2918367 21.37858099 -1.58984375 18.0625 C-1.29045611 14.00925193 -1.73299166 12.36618286 -4.1875 9 C-6.77932177 6.88771668 -6.77932177 6.88771668 -9.4375 6.4375 C-13.14455091 7.25124288 -15.1828269 8.43893355 -18 11 Z " fill="#FCFCFC" transform="translate(239,256)"/>
<path d="M0 0 C0 0.66 0 1.32 0 2 C0.66 2 1.32 2 2 2 C2 2.66 2 3.32 2 4 C2.66 4 3.32 4 4 4 C6.66641331 9.98368341 6.22314726 15.96522925 6.125 22.375 C6.11597656 23.49261719 6.10695313 24.61023438 6.09765625 25.76171875 C6.07418346 28.50803462 6.04134728 31.25390472 6 34 C4.52093108 34.02689216 3.04172517 34.04634621 1.5625 34.0625 C0.32693359 34.07990234 0.32693359 34.07990234 -0.93359375 34.09765625 C-3 34 -3 34 -4 33 C-4.14492129 31.48710388 -4.2270618 29.96807374 -4.28125 28.44921875 C-4.31863281 27.52302734 -4.35601562 26.59683594 -4.39453125 25.64257812 C-4.42933594 24.66740234 -4.46414063 23.69222656 -4.5 22.6875 C-4.5690948 20.77459771 -4.64187466 18.86182415 -4.71875 16.94921875 C-4.74904297 16.09674561 -4.77933594 15.24427246 -4.81054688 14.3659668 C-4.98919055 12.13499273 -5.38711205 10.14789933 -6 8 C-11.28182668 6.97588273 -11.28182668 6.97588273 -16.4375 7.8125 C-18.15043305 8.93294306 -18.15043305 8.93294306 -19 11 C-19.10492933 12.55876939 -19.15520507 14.12143218 -19.17578125 15.68359375 C-19.19962891 16.61107422 -19.22347656 17.53855469 -19.24804688 18.49414062 C-19.29092527 20.45225386 -19.32222507 22.41065576 -19.34179688 24.36914062 C-19.36951172 25.29791016 -19.39722656 26.22667969 -19.42578125 27.18359375 C-19.44036377 28.03493896 -19.45494629 28.88628418 -19.4699707 29.76342773 C-20 32 -20 32 -21.86791992 33.78540039 C-24.44833344 35.2554058 -26.07419783 35.31630294 -29 35 C-31.62735589 32.37264411 -30.78344353 25.55407377 -31 22 C-31.05542969 21.09636719 -31.11085937 20.19273437 -31.16796875 19.26171875 C-31.4001886 12.15136797 -30.21935637 6.85345818 -25.8125 1.1875 C-17.30321846 -5.43083009 -9.13116597 -5.31267838 0 0 Z " fill="#FCFCFC" transform="translate(282,257)"/>
<path d="M0 0 C5.56818182 0.56818182 5.56818182 0.56818182 7 2 C7.13230281 3.35540602 7.20317783 4.71695354 7.24609375 6.078125 C7.27896484 6.90957031 7.31183594 7.74101562 7.34570312 8.59765625 C7.40635635 10.3501473 7.46370914 12.10275604 7.51757812 13.85546875 C7.75223372 20.15838532 7.75223372 20.15838532 10 26 C13.09173752 27.54586876 15.59429552 27.29359521 19 27 C21.38529852 25.68292896 21.38529852 25.68292896 23 23 C23.61049144 19.63131428 23.65124792 16.29236275 23.6875 12.875 C23.72950651 11.0598098 23.7749124 9.24469409 23.82421875 7.4296875 C23.83541748 6.62772949 23.84661621 5.82577148 23.8581543 4.99951172 C24 3 24 3 25 1 C31.75 0.875 31.75 0.875 34 2 C34.08776185 5.68734775 34.14064603 9.37442347 34.1875 13.0625 C34.21263672 14.10083984 34.23777344 15.13917969 34.26367188 16.20898438 C34.32153906 22.28503853 34.02355082 26.67684715 31 32 C26.26483311 36.73516689 22.18944375 38.71005057 15.5625 39.3125 C8.7813905 38.71766583 4.38442884 36.13604521 0 31 C-4.63487626 24.27942942 -3.53103515 12.78219475 -2.625 5 C-2 2 -2 2 0 0 Z " fill="#FDFDFD" transform="translate(378,253)"/>
<path d="M0 0 C2.97 0.33 5.94 0.66 9 1 C9.10957031 1.74765625 9.21914062 2.4953125 9.33203125 3.265625 C9.49058594 4.25046875 9.64914063 5.2353125 9.8125 6.25 C9.96332031 7.22453125 10.11414063 8.1990625 10.26953125 9.203125 C11.03668275 12.14045372 12.11758337 13.66889777 14 16 C14 16.66 14 17.32 14 18 C20.11527525 20.47916564 25.69296897 22.47910496 32.1953125 20.24609375 C35.97764244 18.46658428 39.11945686 16.86556089 41 13 C42.27960036 8.59067646 43 4.60426533 43 0 C43.66 0 44.32 0 45 0 C45.76445887 12.55411338 45.76445887 12.55411338 43.95703125 15.97265625 C42.625 17.25 42.625 17.25 40 19 C39.34 19.66 38.68 20.32 38 21 C32.58018495 23.33612718 27.86663918 24.47619293 22 25 C22.33 26.32 22.66 27.64 23 29 C25.64 29.66 28.28 30.32 31 31 C31 31.33 31 31.66 31 32 C20.73450756 32.48883297 14.11715834 30.58572832 6.43359375 23.62109375 C5 22 5 22 5 20 C4.34 20 3.68 20 3 20 C-1.68457083 8.43496577 -1.68457083 8.43496577 -1 2 C-0.67 1.34 -0.34 0.68 0 0 Z " fill="#88C129" transform="translate(103,260)"/>
<path d="M0 0 C1.07765625 0.01804688 2.1553125 0.03609375 3.265625 0.0546875 C4.49539062 0.08949219 4.49539062 0.08949219 5.75 0.125 C4.875 5.875 4.875 5.875 3.75 8.125 C2.16411956 8.6247401 0.55483572 9.05151798 -1.0625 9.4375 C-5.37352623 10.58329198 -5.37352623 10.58329198 -8.375 13.875 C-9.303125 14.98875 -9.303125 14.98875 -10.25 16.125 C-13.11915594 16.26455039 -15.40657869 15.74107462 -18.25 15.125 C-18.75 12.5625 -18.75 12.5625 -18.25 9.125 C-13.02198631 3.11278425 -8.00635448 -0.17405118 0 0 Z " fill="#87C129" transform="translate(126.25,237.875)"/>
<path d="M0 0 C2.96175123 0.61277612 4.38058783 1.25372522 7 3 C7 3.66 7 4.32 7 5 C7.66 5 8.32 5 9 5 C9.81498562 6.6029053 10.62689927 8.20737278 11.4375 9.8125 C12.11619141 11.15248047 12.11619141 11.15248047 12.80859375 12.51953125 C14.63757705 16.32741452 15.15909859 19.25113257 15.1875 23.4375 C15.20167969 24.38496094 15.21585938 25.33242188 15.23046875 26.30859375 C15 29 15 29 13 33 C12.67 27.39 12.34 21.78 12 16 C10.68 15.67 9.36 15.34 8 15 C5.72855926 16.85432087 5.72855926 16.85432087 4 19 C3.401875 17.906875 2.80375 16.81375 2.1875 15.6875 C0.9634194 13.5060135 0.06268513 12.05620046 -1.8125 10.375 C-2.204375 9.92125 -2.59625 9.4675 -3 9 C-2.73865785 5.602552 -1.64391844 2.95905318 0 0 Z " fill="#A3C867" transform="translate(141,241)"/>
<path d="M0 0 C2.31 0 4.62 0 7 0 C7.06058594 0.81984375 7.12117188 1.6396875 7.18359375 2.484375 C7.26738281 3.56203125 7.35117188 4.6396875 7.4375 5.75 C7.51871094 6.81734375 7.59992188 7.8846875 7.68359375 8.984375 C7.91184891 11.89974208 7.91184891 11.89974208 8.59765625 14.265625 C9 16 9 16 8 18 C8.66 18 9.32 18 10 18 C10 18.66 10 19.32 10 20 C7.6875 19.8125 7.6875 19.8125 5 19 C3.3125 16.5 3.3125 16.5 2 14 C1.34 13.67 0.68 13.34 0 13 C0 8.71 0 4.42 0 0 Z M10 17 C13 18 13 18 13 18 Z " fill="#8AC12A" transform="translate(104,262)"/>
<path d="M0 0 C0.66 0 1.32 0 2 0 C2.76445887 12.55411338 2.76445887 12.55411338 0.95703125 15.97265625 C-0.375 17.25 -0.375 17.25 -3 19 C-3.66 19.66 -4.32 20.32 -5 21 C-10.69322486 23.49702845 -15.81311204 24.5846765 -22 25 C-22 24.34 -22 23.68 -22 23 C-23.32 23 -24.64 23 -26 23 C-26.66 21.35 -27.32 19.7 -28 18 C-27.01 18.495 -26.02 18.99 -25 19.5 C-20.19034044 21.52257314 -15.75749806 21.9636418 -10.8203125 20.23828125 C-7.02489468 18.47959863 -3.88114128 16.86679041 -2 13 C-0.72039964 8.59067646 0 4.60426533 0 0 Z " fill="#A2CA5E" transform="translate(146,260)"/>
<path d="M0 0 C1.69752187 0.25245197 3.38471545 0.57645775 5.0625 0.9375 C5.98160156 1.13214844 6.90070313 1.32679688 7.84765625 1.52734375 C8.91306641 1.76130859 8.91306641 1.76130859 10 2 C10.33 2.99 10.66 3.98 11 5 C9 7 9 7 6.25 7.25 C2.86974405 6.98998031 0.15756096 6.20288037 -3 5 C-2.01 4.67 -1.02 4.34 0 4 C-0.33 3.01 -0.66 2.02 -1 1 C-0.67 0.67 -0.34 0.34 0 0 Z " fill="#87C125" transform="translate(125,284)"/>
<path d="M0 0 C2.97 0.33 5.94 0.66 9 1 C9.10957031 1.74765625 9.21914062 2.4953125 9.33203125 3.265625 C9.49058594 4.25046875 9.64914063 5.2353125 9.8125 6.25 C9.96332031 7.22453125 10.11414063 8.1990625 10.26953125 9.203125 C11.03668275 12.14045372 12.11758337 13.66889777 14 16 C14 16.66 14 17.32 14 18 C11.53199953 16.84826645 9.95216435 15.95216435 8 14 C7.8046875 11.1796875 7.8046875 11.1796875 7.875 7.875 C7.89304687 6.77929688 7.91109375 5.68359375 7.9296875 4.5546875 C7.95289062 3.71164062 7.97609375 2.86859375 8 2 C5.69 2 3.38 2 1 2 C1 5.3 1 8.6 1 12 C-1.44576827 8.33134759 -1.23607254 6.32799657 -1 2 C-0.67 1.34 -0.34 0.68 0 0 Z " fill="#A9CA6A" transform="translate(103,260)"/>
<path d="M0 0 C0.36923077 7.38461538 0.36923077 7.38461538 -1.5 10.5 C-1.995 10.995 -2.49 11.49 -3 12 C-3.99 11.34 -4.98 10.68 -6 10 C-6.29296875 7.8359375 -6.29296875 7.8359375 -6.1875 5.375 C-6.16042969 4.55773437 -6.13335937 3.74046875 -6.10546875 2.8984375 C-6.05326172 1.95871094 -6.05326172 1.95871094 -6 1 C-3.92446352 0.4465236 -2.15634036 0 0 0 Z " fill="#82BF20" transform="translate(111,262)"/>
<path d="M0 0 C1.65 0 3.3 0 5 0 C5 0.66 5 1.32 5 2 C5.66 2 6.32 2 7 2 C7 3.98 7 5.96 7 8 C5.35 8.33 3.7 8.66 2 9 C0.4375 7.3125 0.4375 7.3125 -1 5 C-0.6875 2.25 -0.6875 2.25 0 0 Z " fill="#86BE2B" transform="translate(141,245)"/>
<path d="M0 0 C0.99 0 1.98 0 3 0 C3 3.96 3 7.92 3 12 C2.01 12.33 1.02 12.66 0 13 C-1.546875 11.7890625 -1.546875 11.7890625 -3 10 C-2.890625 7.7734375 -2.890625 7.7734375 -2.25 5.375 C-2.04890625 4.57835937 -1.8478125 3.78171875 -1.640625 2.9609375 C-1 1 -1 1 0 0 Z " fill="#84BE24" transform="translate(150,262)"/>
<path d="M0 0 C0.33 0.66 0.66 1.32 1 2 C0.0625 4.125 0.0625 4.125 -1 6 C1.31 6 3.62 6 6 6 C6.185625 5.38125 6.37125 4.7625 6.5625 4.125 C8.7529623 0.88692529 11.27026067 0.75859105 15 0 C17.9375 -0.125 17.9375 -0.125 20 0 C17.508232 1.29571936 15.06713779 2.36005208 12.4375 3.375 C9.10341812 4.95111143 7.82474392 5.88720155 6 9 C3.36 8.67 0.72 8.34 -2 8 C-2.125 5.125 -2.125 5.125 -2 2 C-1.34 1.34 -0.68 0.68 0 0 Z " fill="#9BC653" transform="translate(110,245)"/>
<path d="M0 0 C2.96175123 0.61277612 4.38058783 1.25372522 7 3 C7 3.66 7 4.32 7 5 C7.66 5 8.32 5 9 5 C9.66 6.65 10.32 8.3 11 10 C8.00306862 9.00102287 6.97290587 8.34869747 5 6 C5 5.34 5 4.68 5 4 C3.35 4.33 1.7 4.66 0 5 C0.2475 6.1446875 0.2475 6.1446875 0.5 7.3125 C1 10 1 10 1 13 C-1.0625 11.3125 -1.0625 11.3125 -3 9 C-2.82919705 5.58394108 -1.64784469 2.96612043 0 0 Z " fill="#AACE6D" transform="translate(141,241)"/>
<path d="M0 0 C0.66 0.66 1.32 1.32 2 2 C1.625 5.125 1.625 5.125 1 8 C-1.31 8.33 -3.62 8.66 -6 9 C-6.66 7.68 -7.32 6.36 -8 5 C-4.04 2.525 -4.04 2.525 0 0 Z " fill="#85C123" transform="translate(147,276)"/>
<path d="M0 0 C0.66 0.66 1.32 1.32 2 2 C2.99 2 3.98 2 5 2 C4.38545304 5.99455527 2.29353263 8.74466336 0 12 C-0.77772405 9.66682784 -1.42415568 7.38564077 -2 5 C-2.99 5.495 -2.99 5.495 -4 6 C-2.84826645 3.53199953 -1.95216435 1.95216435 0 0 Z " fill="#96C73E" transform="translate(149,272)"/>
<path d="M0 0 C0.66 0.33 1.32 0.66 2 1 C1 3 0 5 -1 7 C-3.31 7 -5.62 7 -8 7 C-7.34 5.02 -6.68 3.04 -6 1 C-4.7934375 1.0309375 -4.7934375 1.0309375 -3.5625 1.0625 C-1.06645115 1.29633621 -1.06645115 1.29633621 0 0 Z " fill="#82BE24" transform="translate(117,244)"/>
<path d="M0 0 C0.99 0.33 1.98 0.66 3 1 C3.4021875 2.2375 3.4021875 2.2375 3.8125 3.5 C4.4003125 4.7375 4.4003125 4.7375 5 6 C8.05272465 6.89830839 8.05272465 6.89830839 11 7 C11.103125 7.61875 11.20625 8.2375 11.3125 8.875 C11.87525373 11.36526484 11.87525373 11.36526484 15 13 C14.01 13.33 13.02 13.66 12 14 C9.95703125 12.63671875 9.95703125 12.63671875 7.8125 10.6875 C7.09707031 10.05199219 6.38164063 9.41648437 5.64453125 8.76171875 C4 7 4 7 4 5 C3.34 5 2.68 5 2 5 C1.34 3.35 0.68 1.7 0 0 Z " fill="#A4C85F" transform="translate(104,275)"/>
<path d="M0 0 C-0.66 0 -1.32 0 -2 0 C-2.33 0.99 -2.66 1.98 -3 3 C-5.90092502 4.93395001 -6.89674737 5.30131941 -10.1875 5.625 C-11.445625 5.74875 -12.70375 5.8725 -14 6 C-10.51724745 0.90982319 -6.29113782 -2.41966839 0 0 Z " fill="#DFF0CE" transform="translate(130,247)"/>
<path d="M0 0 C4 4.625 4 4.625 4 8 C3.01 8 2.02 8 1 8 C-1.18777466 9.9375006 -1.18777466 9.9375006 -3 12 C-3.66 10.02 -4.32 8.04 -5 6 C-3.68 5.67 -2.36 5.34 -1 5 C-0.67 3.35 -0.34 1.7 0 0 Z " fill="#97C842" transform="translate(148,248)"/>
<path d="M0 0 C1.07765625 0.01804688 2.1553125 0.03609375 3.265625 0.0546875 C4.49539062 0.08949219 4.49539062 0.08949219 5.75 0.125 C5.42 1.445 5.09 2.765 4.75 4.125 C4.75 3.135 4.75 2.145 4.75 1.125 C3.14482903 1.21233576 1.54078338 1.32052224 -0.0625 1.4375 C-0.95582031 1.49550781 -1.84914063 1.55351562 -2.76953125 1.61328125 C-5.63169751 2.2037439 -6.32248728 3.02615281 -8.25 5.125 C-10.55988315 5.86886068 -12.89315944 6.54690703 -15.25 7.125 C-10.16220768 1.75455255 -7.45549816 -0.16207605 0 0 Z " fill="#A9CB67" transform="translate(126.25,237.875)"/>
<path d="M0 0 C5.78898419 -0.20674944 10.42932723 0.40837921 16 2 C16 2.33 16 2.66 16 3 C10.22192976 3.2358396 5.48675196 2.86783046 0 1 C0 0.67 0 0.34 0 0 Z " fill="#B7D37A" transform="translate(118,289)"/>
<path d="" fill="#FFFFFF" transform="translate(0,0)"/>
<path d="" fill="#FFFFFF" transform="translate(0,0)"/>
<path d="" fill="#FFFFFF" transform="translate(0,0)"/>
<path d="" fill="#FFFFFF" transform="translate(0,0)"/>
<path d="" fill="#FFFFFF" transform="translate(0,0)"/>
<path d="" fill="#FFFFFF" transform="translate(0,0)"/>
<path d="" fill="#FFFFFF" transform="translate(0,0)"/>
<path d="" fill="#FFFFFF" transform="translate(0,0)"/>
<path d="" fill="#FFFFFF" transform="translate(0,0)"/>
<path d="" fill="#FFFFFF" transform="translate(0,0)"/>
<path d="" fill="#FFFFFF" transform="translate(0,0)"/>
<path d="" fill="#FFFFFF" transform="translate(0,0)"/>
<path d="" fill="#FFFFFF" transform="translate(0,0)"/>
<path d="" fill="#FFFFFF" transform="translate(0,0)"/>
<path d="" fill="#FFFFFF" transform="translate(0,0)"/>
<path d="" fill="#FFFFFF" transform="translate(0,0)"/>
<path d="" fill="#FFFFFF" transform="translate(0,0)"/>
<path d="" fill="#FFFFFF" transform="translate(0,0)"/>
<path d="" fill="#FFFFFF" transform="translate(0,0)"/>
<path d="" fill="#FFFFFF" transform="translate(0,0)"/>
<path d="" fill="#FFFFFF" transform="translate(0,0)"/>
<path d="" fill="#FFFFFF" transform="translate(0,0)"/>
<path d="" fill="#FFFFFF" transform="translate(0,0)"/>
<path d="" fill="#FFFFFF" transform="translate(0,0)"/>
<path d="" fill="#FFFFFF" transform="translate(0,0)"/>
<path d="" fill="#FFFFFF" transform="translate(0,0)"/>
<path d="" fill="#FFFFFF" transform="translate(0,0)"/>
<path d="" fill="#FFFFFF" transform="translate(0,0)"/>
<path d="" fill="#FFFFFF" transform="translate(0,0)"/>
<path d="" fill="#FFFFFF" transform="translate(0,0)"/>
<path d="" fill="#FFFFFF" transform="translate(0,0)"/>
<path d="" fill="#FFFFFF" transform="translate(0,0)"/>
<path d="" fill="#FFFFFF" transform="translate(0,0)"/>
<path d="" fill="#FFFFFF" transform="translate(0,0)"/>
<path d="" fill="#FFFFFF" transform="translate(0,0)"/>
<path d="" fill="#FFFFFF" transform="translate(0,0)"/>
<path d="" fill="#FFFFFF" transform="translate(0,0)"/>
<path d="" fill="#FFFFFF" transform="translate(0,0)"/>
<path d="" fill="#FFFFFF" transform="translate(0,0)"/>
<path d="" fill="#FFFFFF" transform="translate(0,0)"/>
<path d="" fill="#FFFFFF" transform="translate(0,0)"/>
<path d="" fill="#FFFFFF" transform="translate(0,0)"/>
<path d="" fill="#FFFFFF" transform="translate(0,0)"/>
<path d="" fill="#FFFFFF" transform="translate(0,0)"/>
<path d="" fill="#FFFFFF" transform="translate(0,0)"/>
<path d="" fill="#FFFFFF" transform="translate(0,0)"/>
<path d="" fill="#FFFFFF" transform="translate(0,0)"/>
<path d="" fill="#FFFFFF" transform="translate(0,0)"/>
<path d="" fill="#FFFFFF" transform="translate(0,0)"/>
<path d="" fill="#FFFFFF" transform="translate(0,0)"/>
<path d="" fill="#FFFFFF" transform="translate(0,0)"/>
<path d="" fill="#FFFFFF" transform="translate(0,0)"/>
<path d="" fill="#FFFFFF" transform="translate(0,0)"/>
<path d="" fill="#FFFFFF" transform="translate(0,0)"/>
<path d="" fill="#FFFFFF" transform="translate(0,0)"/>
<path d="" fill="#FFFFFF" transform="translate(0,0)"/>
<path d="" fill="#FFFFFF" transform="translate(0,0)"/>
<path d="" fill="#FFFFFF" transform="translate(0,0)"/>
<path d="" fill="#FFFFFF" transform="translate(0,0)"/>
<path d="" fill="#FFFFFF" transform="translate(0,0)"/>
<path d="" fill="#FFFFFF" transform="translate(0,0)"/>
<path d="" fill="#FFFFFF" transform="translate(0,0)"/>
<path d="" fill="#FFFFFF" transform="translate(0,0)"/>
<path d="" fill="#FFFFFF" transform="translate(0,0)"/>
<path d="" fill="#FFFFFF" transform="translate(0,0)"/>
<path d="" fill="#FFFFFF" transform="translate(0,0)"/>
<path d="" fill="#FFFFFF" transform="translate(0,0)"/>
<path d="" fill="#FFFFFF" transform="translate(0,0)"/>
<path d="" fill="#FFFFFF" transform="translate(0,0)"/>
<path d="" fill="#FFFFFF" transform="translate(0,0)"/>
<path d="" fill="#FFFFFF" transform="translate(0,0)"/>
<path d="" fill="#FFFFFF" transform="translate(0,0)"/>
<path d="" fill="#FFFFFF" transform="translate(0,0)"/>
<path d="" fill="#FFFFFF" transform="translate(0,0)"/>
</svg>
