<?xml version="1.0" encoding="UTF-8"?>
<svg version="1.1" xmlns="http://www.w3.org/2000/svg" width="500" height="500">
<path d="M0 0 C6.02390777 4.75818396 9.44248984 11.59811427 10.38671875 19.16015625 C10.49931766 21.41964113 10.55533754 23.68308228 10.5390625 25.9453125 C10.73628906 27.24082031 10.73628906 27.24082031 10.9375 28.5625 C12.77579557 29.83325227 12.77579557 29.83325227 14.9375 30.5625 C20.57265556 36.60998402 23.52393379 42.39292241 24.1875 50.6875 C23.66288444 58.81904126 21.95435068 65.85420576 15.9375 71.5625 C15.2775 71.5625 14.6175 71.5625 13.9375 71.5625 C13.9375 72.2225 13.9375 72.8825 13.9375 73.5625 C12.69014433 74.2134259 11.43948168 74.85801669 10.1875 75.5 C9.49140625 75.85964844 8.7953125 76.21929687 8.078125 76.58984375 C1.19376477 79.71795633 -6.3030999 79.50087798 -13.3125 76.875 C-20.95027396 73.46314173 -25.82305582 68.63071578 -29.25 60.875 C-30.00860372 57.78223098 -30.14728684 55.22520932 -30.25 52.0625 C-30.51154748 48.09924496 -30.51154748 48.09924496 -32.50390625 44.80078125 C-33.71787511 43.84376476 -34.9559002 42.91656085 -36.21484375 42.01953125 C-41.48881722 37.86056274 -44.4191858 30.87193004 -45.38671875 24.390625 C-46.01889966 15.56818919 -42.05838611 8.34677719 -36.6875 1.5625 C-24.54953513 -7.68547324 -12.81393433 -8.2670544 0 0 Z M-29.0625 9.5625 C-30.55363354 12.1533295 -30.55363354 12.1533295 -31.0625 14.5625 C-31.7225 14.5625 -32.3825 14.5625 -33.0625 14.5625 C-35.30609229 18.91770857 -35.14289825 21.8253692 -34.0625 26.5625 C-32.60526115 29.89693944 -32.60526115 29.89693944 -31.0625 32.5625 C-30.4025 32.5625 -29.7425 32.5625 -29.0625 32.5625 C-29.0625 33.2225 -29.0625 33.8825 -29.0625 34.5625 C-27.7425 34.8925 -26.4225 35.2225 -25.0625 35.5625 C-24.7325 34.5725 -24.4025 33.5825 -24.0625 32.5625 C-23.4025 32.5625 -22.7425 32.5625 -22.0625 32.5625 C-22.0625 31.9025 -22.0625 31.2425 -22.0625 30.5625 C-14.89038606 26.89419402 -8.14158216 24.16095053 -0.0625 23.5625 C-0.44006431 17.52147111 -2.17678428 13.25070048 -6.0625 8.5625 C-13.25023181 3.21349028 -22.25823939 4.31754911 -29.0625 9.5625 Z M5.9375 36.5625 C4.9475 37.8928125 4.9475 37.8928125 3.9375 39.25 C-2.71239501 47.06362663 -10.0999518 48.54498364 -20.0625 49.5625 C-20.64150343 55.1209329 -19.66781742 58.23781498 -16.46875 62.83203125 C-13.26020501 66.78032411 -10.07510469 67.72025695 -5.1875 68.4375 C-0.26382916 68.81963565 2.62933575 67.89608897 6.9375 65.5625 C7.5975 65.2325 8.2575 64.9025 8.9375 64.5625 C8.9375 63.9025 8.9375 63.2425 8.9375 62.5625 C9.5975 62.5625 10.2575 62.5625 10.9375 62.5625 C13.70724147 56.46906877 14.52738784 52.11623615 12.9375 45.5625 C11.30517229 41.36508588 9.78021836 38.94763554 5.9375 36.5625 Z " fill="#FBFCF9" transform="translate(132.0625,213.4375)"/>
<path d="M0 0 C1.23556641 0.01740234 1.23556641 0.01740234 2.49609375 0.03515625 C3.32238281 0.04417969 4.14867187 0.05320313 5 0.0625 C5.63808594 0.07410156 6.27617187 0.08570313 6.93359375 0.09765625 C8.4564321 3.14333294 8.11726256 6.32523874 8.13671875 9.66796875 C8.14241882 10.42302704 8.1481189 11.17808533 8.1539917 11.95602417 C8.16344792 13.55823362 8.16997815 15.16046258 8.17382812 16.76269531 C8.18347369 19.19241353 8.21446456 21.62126382 8.24609375 24.05078125 C8.25263014 25.61067208 8.25787811 27.17056895 8.26171875 28.73046875 C8.27406555 29.44848663 8.28641235 30.16650452 8.2991333 30.90628052 C8.27270322 37.01526605 7.04760931 42.56691484 3.03125 47.375 C2.35964844 47.92285156 1.68804687 48.47070312 0.99609375 49.03515625 C0.32707031 49.60105469 -0.34195312 50.16695313 -1.03125 50.75 C-5.82235654 53.92261373 -11.65520695 53.73645762 -17.15234375 52.70703125 C-23.0435018 50.94645528 -26.02551803 47.31662011 -29.06640625 42.09765625 C-30.97588901 36.36920796 -30.9782634 30.3220312 -28.44140625 24.78515625 C-25.57164495 19.80083399 -22.16838854 16.98695645 -16.81640625 14.72265625 C-12.05584229 13.92922892 -7.81244124 14.39100315 -3.06640625 15.09765625 C-3.07800781 14.09863281 -3.08960938 13.09960938 -3.1015625 12.0703125 C-3.11058594 10.77996094 -3.11960937 9.48960937 -3.12890625 8.16015625 C-3.14050781 6.87238281 -3.15210938 5.58460938 -3.1640625 4.2578125 C-3.03692125 0.1435218 -3.03692125 0.1435218 0 0 Z M-17.06640625 26.09765625 C-18.98005158 28.80315482 -20.18011168 30.82083908 -19.87890625 34.203125 C-19.11914192 37.46180169 -18.45861097 39.70545153 -16.06640625 42.09765625 C-12.74808341 42.83506133 -10.12766439 43.39245018 -6.81640625 42.47265625 C-4.39753911 40.57211778 -3.28842338 38.92759066 -2.06640625 36.09765625 C-2.29562498 32.3537503 -3.06109836 29.28255702 -5.06640625 26.09765625 C-8.88956465 24.18607705 -13.1208879 24.78248347 -17.06640625 26.09765625 Z " fill="#383838" transform="translate(322.06640625,238.90234375)"/>
<path d="M0 0 C0.8146875 0.00257813 1.629375 0.00515625 2.46875 0.0078125 C3.2834375 0.00523437 4.098125 0.00265625 4.9375 0 C6.96875 0.1328125 6.96875 0.1328125 7.96875 1.1328125 C8.04188567 3.66330652 8.06122527 6.16586087 8.03125 8.6953125 C8.02673828 9.40623047 8.02222656 10.11714844 8.01757812 10.84960938 C8.00575864 12.61071263 7.98782263 14.37177286 7.96875 16.1328125 C9.31453125 15.63394531 9.31453125 15.63394531 10.6875 15.125 C16.38408097 13.40246242 21.0479141 14.11803127 26.28125 16.8828125 C31.9613162 21.63821676 34.59416469 26.08729114 35.28125 33.5078125 C34.69590954 40.29776187 33.07213605 44.48570583 27.90625 49.0703125 C22.84606246 53.20703937 19.42679956 53.6804551 12.96875 53.1328125 C7.27090007 52.00972816 3.88113904 49.56134574 0.1953125 45.14453125 C-2.99549328 39.9112033 -3.31881859 34.69355134 -3.26171875 28.70703125 C-3.26126053 27.91883499 -3.26080231 27.13063873 -3.2603302 26.31855774 C-3.25732417 24.66377239 -3.24948765 23.00898946 -3.23706055 21.35424805 C-3.21868223 18.8109344 -3.21655192 16.26798283 -3.21679688 13.72460938 C-3.21188566 12.11458016 -3.20605908 10.50455342 -3.19921875 8.89453125 C-3.19810593 8.13105881 -3.1969931 7.36758636 -3.19584656 6.58097839 C-3.1378451 0.20516679 -3.1378451 0.20516679 0 0 Z M10.03125 27.1328125 C7.17757284 31.28361564 7.2587654 33.1629203 7.96875 38.1328125 C9.30208333 40.79947917 9.30208333 40.79947917 11.96875 42.1328125 C16.02068677 42.92991481 18.93703847 42.82062019 22.40625 40.5078125 C24.3549106 37.54584838 24.89770147 35.68523884 24.96875 32.1328125 C23.40491066 27.8222339 23.40491066 27.8222339 19.96875 25.1328125 C15.67552141 24.64678662 13.64792361 24.67039642 10.03125 27.1328125 Z " fill="#3B3B3B" transform="translate(172.03125,238.8671875)"/>
<path d="M0 0 C0.8146875 0.00257813 1.629375 0.00515625 2.46875 0.0078125 C3.2834375 0.00523437 4.098125 0.00265625 4.9375 0 C6.96875 0.1328125 6.96875 0.1328125 7.96875 1.1328125 C8.04188567 3.66330652 8.06122527 6.16586087 8.03125 8.6953125 C8.02673828 9.40623047 8.02222656 10.11714844 8.01757812 10.84960938 C8.00575864 12.61071263 7.98782263 14.37177286 7.96875 16.1328125 C8.87625 15.79894531 9.78375 15.46507812 10.71875 15.12109375 C15.99124786 13.51779813 20.03604384 14.45068092 25.15625 16.2578125 C29.61221883 19.22845839 32.28195369 23.07242357 33.96875 28.1328125 C34.05114169 29.97891782 34.07618359 31.82786414 34.06640625 33.67578125 C34.06318359 34.74892578 34.05996094 35.82207031 34.05664062 36.92773438 C34.04407227 38.60706055 34.04407227 38.60706055 34.03125 40.3203125 C34.02673828 41.45146484 34.02222656 42.58261719 34.01757812 43.74804688 C34.00578498 46.54302177 33.9893265 49.3378907 33.96875 52.1328125 C30.66875 52.1328125 27.36875 52.1328125 23.96875 52.1328125 C23.90816406 50.59109375 23.84757812 49.049375 23.78515625 47.4609375 C23.70073747 45.4348868 23.61609014 43.4088456 23.53125 41.3828125 C23.49193359 40.36703125 23.45261719 39.35125 23.41210938 38.3046875 C23.37021484 37.325 23.32832031 36.3453125 23.28515625 35.3359375 C23.24849854 34.43520508 23.21184082 33.53447266 23.17407227 32.60644531 C23.01224075 29.84932149 23.01224075 29.84932149 21.96875 26.1328125 C18.00875 26.1328125 14.04875 26.1328125 9.96875 26.1328125 C9.14692495 29.42011269 8.78817251 31.99843071 8.65234375 35.3359375 C8.61044922 36.315625 8.56855469 37.2953125 8.52539062 38.3046875 C8.48607422 39.32046875 8.44675781 40.33625 8.40625 41.3828125 C8.36306641 42.4140625 8.31988281 43.4453125 8.27539062 44.5078125 C8.16949413 47.04932838 8.06863519 49.59105327 7.96875 52.1328125 C4.33875 52.1328125 0.70875 52.1328125 -3.03125 52.1328125 C-3.05589113 44.88794201 -3.0740818 37.64309568 -3.08618164 30.39819336 C-3.09122356 27.93139217 -3.09805691 25.46459398 -3.10668945 22.99780273 C-3.11876125 19.46076721 -3.12447956 15.92377105 -3.12890625 12.38671875 C-3.13406754 11.27631729 -3.13922882 10.16591583 -3.14454651 9.02186584 C-3.14462204 8.00088303 -3.14469757 6.97990021 -3.14477539 5.92797852 C-3.146996 5.02418961 -3.14921661 4.1204007 -3.15150452 3.18922424 C-2.98950218 0.41890417 -2.76809207 0.18099064 0 0 Z " fill="#353535" transform="translate(337.03125,238.8671875)"/>
<path d="M0 0 C0.495 0.99 0.495 0.99 1 2 C1.5775 2.2475 2.155 2.495 2.75 2.75 C7.84177688 5.57876493 10.77881512 10.78021554 13 16 C15.21691854 23.85998393 13.86153581 31.49691792 11 39 C9.50699576 41.45078054 8.10800033 43.00010225 6 45 C5.34 45 4.68 45 4 45 C4 45.66 4 46.32 4 47 C2.75264433 47.6509259 1.50198168 48.29551669 0.25 48.9375 C-0.44609375 49.29714844 -1.1421875 49.65679687 -1.859375 50.02734375 C-8.74373523 53.15545633 -16.2405999 52.93837798 -23.25 50.3125 C-30.95363618 46.87122052 -35.7817341 41.99109828 -39.25 34.1875 C-40.31022592 29.68153986 -41.1323455 24.264691 -39 20 C-36.03 20.33 -33.06 20.66 -30 21 C-29.938125 22.32 -29.87625 23.64 -29.8125 25 C-29.20316258 30.22053951 -27.62805345 34.14632134 -24 38 C-19.04893208 41.37772856 -14.03969841 41.26003137 -8.27734375 40.4609375 C-5.68713389 39.93667547 -3.36589168 39.18294584 -1 38 C-1 37.34 -1 36.68 -1 36 C-0.34 36 0.32 36 1 36 C1.37437149 34.3420691 1.69295146 32.67170873 2 31 C2.14179688 30.33355469 2.28359375 29.66710937 2.4296875 28.98046875 C3.4974255 22.75926059 2.31689615 18.36303338 -1 13 C-1.83337891 12.27296875 -1.83337891 12.27296875 -2.68359375 11.53125 C-4 10 -4 10 -3.92578125 7.7734375 C-3.72339844 6.98195312 -3.52101562 6.19046875 -3.3125 5.375 C-3.02826172 4.18003906 -3.02826172 4.18003906 -2.73828125 2.9609375 C-2 1 -2 1 0 0 Z " fill="#87C026" transform="translate(142,240)"/>
<path d="M0 0 C4.66863117 4.77473643 6.69934457 8.75292136 7.3125 15.375 C6.7304977 22.12622669 5.10748735 26.34639464 0 30.9375 C-4.63718033 34.79303441 -8.46385793 35.35949187 -14.3671875 35.2734375 C-19.99144246 34.68931606 -24.2834683 32.29341017 -27.875 27.9375 C-31.14380939 22.7274864 -32.76222352 16.58132964 -31.46875 10.50390625 C-28.86127523 3.83911083 -24.44732841 -0.2763358 -18.125 -3.4375 C-11.63752663 -4.60524521 -5.55049971 -3.6582839 0 0 Z M-18.4375 8.5625 C-20.49240979 11.76815927 -20.86470518 14.21174497 -21 18 C-20.19420215 20.3715005 -20.19420215 20.3715005 -19 22 C-18.34 22 -17.68 22 -17 22 C-17 22.66 -17 23.32 -17 24 C-10.95221034 24.56023939 -10.95221034 24.56023939 -5.5 22.375 C-3.62743632 19.41010751 -3.07032144 17.51607206 -3 14 C-4.56383934 9.6894214 -4.56383934 9.6894214 -8 7 C-13.54038298 6.44560552 -13.54038298 6.44560552 -18.4375 8.5625 Z " fill="#363636" transform="translate(241,257)"/>
<path d="M0 0 C0.8146875 0.00257813 1.629375 0.00515625 2.46875 0.0078125 C3.2834375 0.00523437 4.098125 0.00265625 4.9375 0 C6.96875 0.1328125 6.96875 0.1328125 7.96875 1.1328125 C8.11389568 2.73053721 8.19587225 4.33410931 8.25 5.9375 C8.28738281 6.91332031 8.32476562 7.88914062 8.36328125 8.89453125 C8.39808594 9.92191406 8.43289063 10.94929688 8.46875 12.0078125 C8.53764507 14.02618295 8.61039311 16.04442658 8.6875 18.0625 C8.71779297 18.96210449 8.74808594 19.86170898 8.77929688 20.78857422 C8.88725059 23.28628093 8.88725059 23.28628093 9.96875 26.1328125 C15.07967494 27.15499749 18.11666462 26.93344475 22.96875 25.1328125 C22.99380615 24.41101807 23.0188623 23.68922363 23.04467773 22.94555664 C23.16026302 19.6952775 23.28315774 16.44531562 23.40625 13.1953125 C23.44556641 12.05900391 23.48488281 10.92269531 23.52539062 9.75195312 C23.56728516 8.67236328 23.60917969 7.59277344 23.65234375 6.48046875 C23.68900146 5.48023682 23.72565918 4.48000488 23.76342773 3.44946289 C23.96875 1.1328125 23.96875 1.1328125 24.96875 0.1328125 C26.48803038 0.06101286 28.01042482 0.04889243 29.53125 0.0703125 C30.35753906 0.07933594 31.18382812 0.08835938 32.03515625 0.09765625 C32.67324219 0.10925781 33.31132812 0.12085938 33.96875 0.1328125 C34.11513209 4.13242149 34.20318323 8.13133308 34.28125 12.1328125 C34.32314453 13.25816406 34.36503906 14.38351562 34.40820312 15.54296875 C34.51271144 22.69133778 33.87588642 27.71620108 28.96875 33.1328125 C23.92638137 37.59497976 19.39448813 38.95927202 12.65234375 38.61328125 C7.57754469 37.70469277 3.84681718 35.48039647 0.625 31.453125 C-3.47126037 24.8698494 -3.19017941 17.7904383 -3.15625 10.3203125 C-3.16011719 9.44955078 -3.16398437 8.57878906 -3.16796875 7.68164062 C-3.16667969 6.85470703 -3.16539062 6.02777344 -3.1640625 5.17578125 C-3.16293457 4.42321045 -3.16180664 3.67063965 -3.16064453 2.89526367 C-2.97156651 0.31987838 -2.56770125 0.16788816 0 0 Z " fill="#2F2F2F" transform="translate(378.03125,253.8671875)"/>
<path d="M0 0 C0.495 1.485 0.495 1.485 1 3 C1.66 3 2.32 3 3 3 C5.66641331 8.98368341 5.22314726 14.96522925 5.125 21.375 C5.11597656 22.49261719 5.10695313 23.61023438 5.09765625 24.76171875 C5.07418346 27.50803462 5.04134728 30.25390472 5 33 C0.05 33.495 0.05 33.495 -5 34 C-6.18429987 31.63140026 -6.10095343 30.24246596 -6.0625 27.60546875 C-6.05476563 26.73212891 -6.04703125 25.85878906 -6.0390625 24.95898438 C-6.01318597 23.12304454 -5.98714642 21.28710699 -5.9609375 19.45117188 C-5.95320313 18.57396484 -5.94546875 17.69675781 -5.9375 16.79296875 C-5.92589844 15.9939917 -5.91429687 15.19501465 -5.90234375 14.37182617 C-5.95736983 11.53883909 -5.95736983 11.53883909 -7 7 C-10.96 7 -14.92 7 -19 7 C-19.99455909 9.98367726 -20.19559632 12.2004192 -20.31640625 15.32421875 C-20.35830078 16.35224609 -20.40019531 17.38027344 -20.44335938 18.43945312 C-20.48267578 19.51130859 -20.52199219 20.58316406 -20.5625 21.6875 C-20.60568359 22.77095703 -20.64886719 23.85441406 -20.69335938 24.97070312 C-20.79946742 27.64698385 -20.90024055 30.32347511 -21 33 C-24.63 33 -28.26 33 -32 33 C-32.1085765 29.33252724 -32.18759858 25.66831194 -32.25 22 C-32.30027344 20.45505859 -32.30027344 20.45505859 -32.3515625 18.87890625 C-32.44389505 11.63080135 -31.5660057 6.03632663 -26.65795898 0.48095703 C-18.3385436 -7.19064069 -8.61526042 -5.9779358 0 0 Z " fill="#2C2C2C" transform="translate(283,258)"/>
<path d="M0 0 C0 2.64 0 5.28 0 8 C2.31 8 4.62 8 7 8 C7.33 8.99 7.66 9.98 8 11 C4.37 11 0.74 11 -3 11 C-3.99455909 13.98367726 -4.19559632 16.2004192 -4.31640625 19.32421875 C-4.35830078 20.35224609 -4.40019531 21.38027344 -4.44335938 22.43945312 C-4.48267578 23.51130859 -4.52199219 24.58316406 -4.5625 25.6875 C-4.60568359 26.77095703 -4.64886719 27.85441406 -4.69335938 28.97070312 C-4.79946742 31.64698385 -4.90024055 34.32347511 -5 37 C-8.63 37 -12.26 37 -16 37 C-16.1085765 33.33252724 -16.18759858 29.66831194 -16.25 26 C-16.30027344 24.45505859 -16.30027344 24.45505859 -16.3515625 22.87890625 C-16.44353121 15.65936243 -15.6564704 9.83096051 -10.51635742 4.44555664 C-7.11657913 1.46739922 -4.56039308 0 0 0 Z " fill="#474747" transform="translate(267,254)"/>
<path d="M0 0 C0.33 0.66 0.66 1.32 1 2 C1.5775 2.2475 2.155 2.495 2.75 2.75 C7.84177688 5.57876493 10.77881512 10.78021554 13 16 C15.14141439 23.59228738 14.19078795 31.82072711 11 39 C8.59762851 40.64448048 7.63940273 41.10656712 4.75 40.625 C4.1725 40.41875 3.595 40.2125 3 40 C3 40.66 3 41.32 3 42 C1.04072937 43.7143618 -0.95880212 45.38405168 -3 47 C-4.32 46.34 -5.64 45.68 -7 45 C-2.375 40.125 -2.375 40.125 1 39 C2.15521502 36.52869082 2.15521502 36.52869082 3 34 C3.495 33.505 3.495 33.505 4 33 C4.10027422 30.19822034 4.13873289 27.42650888 4.125 24.625 C4.12886719 23.84382813 4.13273438 23.06265625 4.13671875 22.2578125 C4.13100915 18.9234054 4.06131005 16.18393014 3 13 C2.01 12.690625 1.02 12.38125 0 12.0625 C-3 11 -3 11 -4 9.25 C-4 6.16937174 -3.19259008 3.82455545 -2 1 C-1.34 0.67 -0.68 0.34 0 0 Z " fill="#85BE29" transform="translate(142,240)"/>
<path d="M0 0 C0.8146875 0.00257813 1.629375 0.00515625 2.46875 0.0078125 C3.2834375 0.00523437 4.098125 0.00265625 4.9375 0 C6.96875 0.1328125 6.96875 0.1328125 7.96875 1.1328125 C8.11389568 2.73053721 8.19587225 4.33410931 8.25 5.9375 C8.28738281 6.91332031 8.32476562 7.88914062 8.36328125 8.89453125 C8.39808594 9.92191406 8.43289063 10.94929688 8.46875 12.0078125 C8.53764507 14.02618295 8.61039311 16.04442658 8.6875 18.0625 C8.71779297 18.96210449 8.74808594 19.86170898 8.77929688 20.78857422 C8.88725059 23.28628093 8.88725059 23.28628093 9.96875 26.1328125 C11.61875 26.4628125 13.26875 26.7928125 14.96875 27.1328125 C12.96875 28.1328125 10.96875 29.1328125 8.96875 30.1328125 C8.63875 29.4728125 8.30875 28.8128125 7.96875 28.1328125 C7.63875 28.7928125 7.30875 29.4528125 6.96875 30.1328125 C7.79375 30.5659375 8.61875 30.9990625 9.46875 31.4453125 C10.29375 32.0021875 11.11875 32.5590625 11.96875 33.1328125 C11.96875 34.1228125 11.96875 35.1128125 11.96875 36.1328125 C10.34375 36.8828125 10.34375 36.8828125 7.96875 37.1328125 C2.57013203 34.43350352 0.43732018 31.43566696 -2.03125 26.1328125 C-3.23312335 20.87756235 -3.18059412 15.68007625 -3.15625 10.3203125 C-3.16011719 9.44955078 -3.16398437 8.57878906 -3.16796875 7.68164062 C-3.16667969 6.85470703 -3.16539062 6.02777344 -3.1640625 5.17578125 C-3.16293457 4.42321045 -3.16180664 3.67063965 -3.16064453 2.89526367 C-2.97156651 0.31987838 -2.56770125 0.16788816 0 0 Z " fill="#3B3B3B" transform="translate(378.03125,253.8671875)"/>
<path d="M0 0 C2.86724686 0.57344937 3.8614515 0.8614515 6 3 C6.25362865 5.96096707 6.37031319 8.78793644 6.375 11.75 C6.39949219 12.54921875 6.42398438 13.3484375 6.44921875 14.171875 C6.47592238 19.5838107 5.65417402 22.74568791 2 27 C0.35008418 27.70710678 -1.31562256 28.37943989 -3 29 C-4.34410262 31.01735205 -4.34410262 31.01735205 -5 33 C-1.12128967 33.45218674 -1.12128967 33.45218674 0.625 31.5 C1.07875 31.005 1.5325 30.51 2 30 C2.66 30 3.32 30 4 30 C4 29.34 4 28.68 4 28 C5.65 28.33 7.3 28.66 9 29 C8.34 30.32 7.68 31.64 7 33 C6.34 33 5.68 33 5 33 C5 33.66 5 34.32 5 35 C3.75264433 35.6509259 2.50198168 36.29551669 1.25 36.9375 C0.20585937 37.47697266 0.20585937 37.47697266 -0.859375 38.02734375 C-6.86026836 40.75402704 -13.59459482 41.05956221 -19.875 39.10546875 C-22.28745957 38.13568742 -24.65317309 37.11848772 -27 36 C-23.9852211 34.49261055 -21.34939759 35.42874746 -18.09375 35.94140625 C-17.05734375 35.97041016 -17.05734375 35.97041016 -16 36 C-15.34 35.34 -14.68 34.68 -14 34 C-14.9075 33.7525 -15.815 33.505 -16.75 33.25 C-20.10351489 31.96018658 -21.67708236 30.68028958 -24 28 C-23.67 27.34 -23.34 26.68 -23 26 C-21.329375 26.7734375 -21.329375 26.7734375 -19.625 27.5625 C-13.59512102 29.8330761 -7.87301191 28.97682405 -1.875 26.9375 C-1.25625 26.628125 -0.6375 26.31875 0 26 C0 25.34 0 24.68 0 24 C0.66 24 1.32 24 2 24 C2.37437149 22.3420691 2.69295146 20.67170873 3 19 C3.21269531 18.01773437 3.21269531 18.01773437 3.4296875 17.015625 C4.57011692 10.45233732 2.87343842 5.90719744 0 0 Z " fill="#94C345" transform="translate(141,252)"/>
<path d="M0 0 C0.20086443 3.71599191 0.1519437 4.77208445 -2 8 C-5.05774949 8.89908259 -8.12055152 9.46053809 -11.25 10.05859375 C-14.12991226 10.73022849 -14.12991226 10.73022849 -15.375 13.09765625 C-15.58125 13.72542969 -15.7875 14.35320312 -16 15 C-18.64 15 -21.28 15 -24 15 C-25.04449911 11.86650268 -24.93423645 11.01031744 -24 8 C-23.34 8 -22.68 8 -22 8 C-22 7.34 -22 6.68 -22 6 C-15.12774093 0.13121239 -8.78252899 -0.81487382 0 0 Z " fill="#9DC555" transform="translate(132,238)"/>
<path d="M0 0 C7.1979582 0.46386842 12.84205889 1.4092954 17.9375 6.9375 C20 10 20 10 19.8125 12.375 C19.544375 12.91125 19.27625 13.4475 19 14 C14.25 15.125 14.25 15.125 12 14 C11.34 14.66 10.68 15.32 10 16 C9.67 14.68 9.34 13.36 9 12 C5.7 11.67 2.4 11.34 -1 11 C-1.33 9.68 -1.66 8.36 -2 7 C-1 6 0 5 1 4 C0.636076 1.91896357 0.636076 1.91896357 0 0 Z " fill="#373737" transform="translate(226,253)"/>
<path d="M0 0 C0.66 0 1.32 0 2 0 C2.66 1.32 3.32 2.64 4 4 C4.66 4 5.32 4 6 4 C6.05454409 6.35448675 6.0939279 8.70767875 6.125 11.0625 C6.14820313 12.37347656 6.17140625 13.68445313 6.1953125 15.03515625 C5.99417522 19.11824299 5.27165462 22.14999053 4 26 C2.02 25.67 0.04 25.34 -2 25 C-2 25.66 -2 26.32 -2 27 C-3.95927063 28.7143618 -5.95880212 30.38405168 -8 32 C-9.32 31.34 -10.64 30.68 -12 30 C-7.375 25.125 -7.375 25.125 -4 24 C-2.84478498 21.52869082 -2.84478498 21.52869082 -2 19 C-1.67 18.67 -1.34 18.34 -1 18 C-0.84417697 16.65984779 -0.74955858 15.31241097 -0.68359375 13.96484375 C-0.64169922 13.15595703 -0.59980469 12.34707031 -0.55664062 11.51367188 C-0.49766602 10.2384668 -0.49766602 10.2384668 -0.4375 8.9375 C-0.39431641 8.08349609 -0.35113281 7.22949219 -0.30664062 6.34960938 C-0.20023298 4.23327963 -0.09958269 2.11666187 0 0 Z " fill="#87C025" transform="translate(147,255)"/>
<path d="M0 0 C2.97 0 5.94 0 9 0 C9.05407567 2.58361518 9.093707 5.16609255 9.125 7.75 C9.14175781 8.47960937 9.15851563 9.20921875 9.17578125 9.9609375 C9.24496384 17.57102273 9.24496384 17.57102273 7 20 C4.69 20.33 2.38 20.66 0 21 C0 14.07 0 7.14 0 0 Z " fill="#2C2C2C" transform="translate(403,254)"/>
<path d="M0 0 C0.33 0 0.66 0 1 0 C1.33 6.27 1.66 12.54 2 19 C3.98 18.67 5.96 18.34 8 18 C8.66 17.01 9.32 16.02 10 15 C10.74521523 22.15406617 9.34707015 26.30223306 5 32 C2.69 31.01 0.38 30.02 -2 29 C-2 28.34 -2 27.68 -2 27 C-3.65 27 -5.3 27 -7 27 C-3.25 24 -3.25 24 -1 24 C-0.67 16.08 -0.34 8.16 0 0 Z " fill="#434343" transform="translate(402,255)"/>
<path d="M0 0 C1.32 0.99 2.64 1.98 4 3 C3.67 3.99 3.34 4.98 3 6 C2.34 6 1.68 6 1 6 C0.7525 6.61875 0.505 7.2375 0.25 7.875 C-1.30552932 10.51939985 -2.07621471 11.07669938 -5 12 C-7.6912795 12.15467124 -10.29937883 12.09002071 -13 12 C-13.33 10.35 -13.66 8.7 -14 7 C-13.01 6.67 -12.02 6.34 -11 6 C-11.33 5.01 -11.66 4.02 -12 3 C-10.68 3 -9.36 3 -8 3 C-8 3.66 -8 4.32 -8 5 C-7.01 5 -6.02 5 -5 5 C-5 4.34 -5 3.68 -5 3 C-4.01 2.67 -3.02 2.34 -2 2 C-1.34 2.33 -0.68 2.66 0 3 C0 2.01 0 1.02 0 0 Z " fill="#222222" transform="translate(319,279)"/>
<path d="M0 0 C2.97 0.33 5.94 0.66 9 1 C9.12375 2.98 9.12375 2.98 9.25 5 C9.7866401 10.05402843 11.51817677 13.59676524 14 18 C12.02 18 10.04 18 8 18 C8 12.72 8 7.44 8 2 C5.69 2 3.38 2 1 2 C1.5254883 7.88546891 2.82434072 12.51355486 5 18 C5 18.66 5 19.32 5 20 C5.99 20.33 6.98 20.66 8 21 C8 21.66 8 22.32 8 23 C9.32 23.66 10.64 24.32 12 25 C11.67 25.66 11.34 26.32 11 27 C5.27849392 24.57269439 2.19435713 19.55158114 -0.375 14.0625 C-1.2915669 9.5713222 -2.10746363 4.21492726 0 0 Z " fill="#A2C55F" transform="translate(103,260)"/>
<path d="M0 0 C1.43836751 0.11458693 2.87570966 0.24209116 4.3125 0.375 C5.51326172 0.47941406 5.51326172 0.47941406 6.73828125 0.5859375 C9 1 9 1 12 3 C10.02 4.32 8.04 5.64 6 7 C6.33 8.32 6.66 9.64 7 11 C4.36 11 1.72 11 -1 11 C-1.6875 9.1875 -1.6875 9.1875 -2 7 C-1 6 0 5 1 4 C0.636076 1.91896357 0.636076 1.91896357 0 0 Z " fill="#444444" transform="translate(226,253)"/>
<path d="M0 0 C0 0.66 0 1.32 0 2 C0.66 1.67 1.32 1.34 2 1 C3.99960012 0.960008 6.00047242 0.95653201 8 1 C7.67 1.99 7.34 2.98 7 4 C4.34765625 4.87890625 4.34765625 4.87890625 1.0625 5.5625 C-3.45069636 6.36690172 -3.45069636 6.36690172 -7 9 C-7.99 8.67 -8.98 8.34 -10 8 C-10.33 8.66 -10.66 9.32 -11 10 C-11.66 9.34 -12.32 8.68 -13 8 C-12.67 7.01 -12.34 6.02 -12 5 C-10.34561387 4.30341637 -8.67745682 3.63903117 -7 3 C-6.2265625 2.195625 -6.2265625 2.195625 -5.4375 1.375 C-4 0 -4 0 0 0 Z " fill="#86C225" transform="translate(122,241)"/>
<path d="M0 0 C0.66 0.33 1.32 0.66 2 1 C2.33 7.27 2.66 13.54 3 20 C-0.3 20 -3.6 20 -7 20 C-7 17.69 -7 15.38 -7 13 C-6.38125 13.495 -5.7625 13.99 -5.125 14.5 C-3.16119096 16.19222773 -3.16119096 16.19222773 -1 16 C-0.67 10.72 -0.34 5.44 0 0 Z " fill="#2A2A2A" transform="translate(259,271)"/>
<path d="M0 0 C2.86724686 0.57344937 3.8614515 0.8614515 6 3 C6.25362865 5.96096707 6.37031319 8.78793644 6.375 11.75 C6.39949219 12.54921875 6.42398438 13.3484375 6.44921875 14.171875 C6.47599905 19.59934938 5.63604787 22.72075233 2 27 C-1 29 -1 29 -3.1875 28.625 C-4.0846875 28.315625 -4.0846875 28.315625 -5 28 C-3.35 27.34 -1.7 26.68 0 26 C0 25.34 0 24.68 0 24 C0.66 24 1.32 24 2 24 C2.37437149 22.3420691 2.69295146 20.67170873 3 19 C3.14179688 18.34515625 3.28359375 17.6903125 3.4296875 17.015625 C4.57011692 10.45233732 2.87343842 5.90719744 0 0 Z " fill="#A4C861" transform="translate(141,252)"/>
<path d="M0 0 C0.33 0.66 0.66 1.32 1 2 C1.86625 2.37125 1.86625 2.37125 2.75 2.75 C7.17503812 5.20835451 9.52867272 8.78801557 11.3125 13.375 C11.6528125 14.674375 11.6528125 14.674375 12 16 C9 15 9 15 7.8125 13.125 C7 11 7 11 7 8 C3.41672247 6.99782936 3.41672247 6.99782936 0 8 C-0.33 7.34 -0.66 6.68 -1 6 C-1.33 7.65 -1.66 9.3 -2 11 C-2.66 10.67 -3.32 10.34 -4 10 C-3.71872579 8.51882199 -3.42466268 7.04006751 -3.125 5.5625 C-2.96257812 4.73878906 -2.80015625 3.91507813 -2.6328125 3.06640625 C-2.42398438 2.38449219 -2.21515625 1.70257813 -2 1 C-1.34 0.67 -0.68 0.34 0 0 Z " fill="#9AC454" transform="translate(142,240)"/>
<path d="M0 0 C-0.61875 0.0825 -1.2375 0.165 -1.875 0.25 C-2.57625 0.4975 -3.2775 0.745 -4 1 C-4.433125 1.9590625 -4.433125 1.9590625 -4.875 2.9375 C-6 5 -6 5 -8.5 6.25 C-13.04535236 7.22400408 -17.37139834 7.16465381 -22 7 C-22 6.67 -22 6.34 -22 6 C-20.7625 5.9175 -19.525 5.835 -18.25 5.75 C-14.17478772 5.25668483 -12.77353927 4.0508932 -10 1 C-6.31076908 -0.61403853 -3.83649513 -1.47557505 0 0 Z " fill="#E0EFCD" transform="translate(130,247)"/>
<path d="M0 0 C0 0.99 0 1.98 0 3 C-2.64 3.33 -5.28 3.66 -8 4 C-8 3.34 -8 2.68 -8 2 C-11.62113764 3.2572772 -11.62113764 3.2572772 -14.5625 5.625 C-16 7 -16 7 -20 7 C-20 6.34 -20 5.68 -20 5 C-13.54003334 -0.07568809 -7.8587011 -0.13549485 0 0 Z " fill="#85BE2E" transform="translate(130,239)"/>
<path d="M0 0 C4.62 0.99 9.24 1.98 14 3 C14 2.34 14 1.68 14 1 C17.3 1.66 20.6 2.32 24 3 C18.30407445 5.84796278 13.23180186 6.00993808 7.125 4.1015625 C4.71143009 3.13476319 2.34672523 2.11843926 0 1 C0 0.67 0 0.34 0 0 Z " fill="#A2C956" transform="translate(114,287)"/>
<path d="M0 0 C0.33 0 0.66 0 1 0 C2.94302765 8.01498905 1.88762582 15.34381779 -1 23 C-1.66 23.33 -2.32 23.66 -3 24 C-2 16 -1 8 0 0 Z " fill="#A0C361" transform="translate(154,256)"/>
<path d="M0 0 C-0.33097938 3.08914085 -1.00284699 4.0026931 -3.3125 6.1875 C-8.17404946 9.4662194 -12.27456545 9.09542391 -18 9 C-18 8.67 -18 8.34 -18 8 C-16.948125 7.896875 -15.89625 7.79375 -14.8125 7.6875 C-11.10215698 7.01842175 -8.94147873 6.3175287 -6 4 C-6 3.01 -6 2.02 -6 1 C-3.92446352 0.4465236 -2.15634036 0 0 0 Z " fill="#393939" transform="translate(325,283)"/>
<path d="M0 0 C0.33 0.99 0.66 1.98 1 3 C0.34 3 -0.32 3 -1 3 C-1 3.66 -1 4.32 -1 5 C-1.66 5.66 -2.32 6.32 -3 7 C-4.11375 6.7525 -4.11375 6.7525 -5.25 6.5 C-8.70070053 5.8725999 -10.78294427 6.72814076 -14 8 C-14 6.68 -14 5.36 -14 4 C-10.37 4 -6.74 4 -3 4 C-2.67 3.01 -2.34 2.02 -2 1 C-1.34 0.67 -0.68 0.34 0 0 Z " fill="#222222" transform="translate(237,278)"/>
<path d="M0 0 C5.75 1.875 5.75 1.875 8 3 C7.34 4.32 6.68 5.64 6 7 C4 6 4 6 3 5 C0.67182036 4.63239269 -1.6618385 4.29758419 -4 4 C-2.68 2.68 -1.36 1.36 0 0 Z " fill="#3C3C3C" transform="translate(357,254)"/>
<path d="M0 0 C0.20413361 5.73842251 0.27141454 10.60539047 -2 16 C-2.33 16 -2.66 16 -3 16 C-3 11.05 -3 6.1 -3 1 C-1 0 -1 0 0 0 Z " fill="#212121" transform="translate(370,272)"/>
<path d="M0 0 C0.61875 0.495 1.2375 0.99 1.875 1.5 C3.83880904 3.19222773 3.83880904 3.19222773 6 3 C6.33 2.34 6.66 1.68 7 1 C7.33 2.98 7.66 4.96 8 7 C5.36 7 2.72 7 0 7 C0 4.69 0 2.38 0 0 Z " fill="#1A1A1A" transform="translate(252,284)"/>
<path d="M0 0 C0.33 0 0.66 0 1 0 C1 6.27 1 12.54 1 19 C-0.32 18.34 -1.64 17.68 -3 17 C-2.690625 16.05125 -2.38125 15.1025 -2.0625 14.125 C-0.72071729 9.49061575 -0.36657993 4.79447959 0 0 Z " fill="#5E5E5E" transform="translate(370,272)"/>
<path d="M0 0 C0.66 0 1.32 0 2 0 C2.33 1.32 2.66 2.64 3 4 C4.32 3.67 5.64 3.34 7 3 C7 4.32 7 5.64 7 7 C4.69 7 2.38 7 0 7 C-1.04449911 3.86650268 -0.93423645 3.01031744 0 0 Z " fill="#92C044" transform="translate(108,246)"/>
<path d="M0 0 C0.66 0 1.32 0 2 0 C2 0.66 2 1.32 2 2 C1.01 2.495 1.01 2.495 0 3 C0 4.65 0 6.3 0 8 C-3.68754757 7.50168276 -5.60490662 6.89932357 -8 4 C-7.236875 3.896875 -6.47375 3.79375 -5.6875 3.6875 C-2.78105605 2.94399108 -1.96433971 2.15141968 0 0 Z " fill="#494949" transform="translate(306,283)"/>
<path d="M0 0 C1.65 0 3.3 0 5 0 C5 1.65 5 3.3 5 5 C3.35 5.66 1.7 6.32 0 7 C0 4.69 0 2.38 0 0 Z " fill="#85BC2F" transform="translate(106,262)"/>
<path d="M0 0 C2.48724903 3.31633204 4.23109915 6.29373156 6 10 C4.02 10 2.04 10 0 10 C0 6.7 0 3.4 0 0 Z " fill="#9EC452" transform="translate(111,268)"/>
<path d="M0 0 C1.65 0.33 3.3 0.66 5 1 C4.34 2.32 3.68 3.64 3 5 C2.34 5 1.68 5 1 5 C1 5.66 1 6.32 1 7 C0.34 7 -0.32 7 -1 7 C-0.67 4.69 -0.34 2.38 0 0 Z " fill="#A1CA56" transform="translate(145,280)"/>
<path d="M0 0 C0.66 0.33 1.32 0.66 2 1 C2 2.32 2 3.64 2 5 C1.34 5 0.68 5 0 5 C-0.33 5.66 -0.66 6.32 -1 7 C-1.33 6.01 -1.66 5.02 -2 4 C-3.65 4 -5.3 4 -7 4 C-4.61426621 2.10786631 -2.92824652 0.97608217 0 0 Z " fill="#4A4A4A" transform="translate(402,278)"/>
<path d="M0 0 C0 0.66 0 1.32 0 2 C-2.3129482 4.3129482 -3.47904875 4.49580975 -6.625 5.125 C-7.44226563 5.29257812 -8.25953125 5.46015625 -9.1015625 5.6328125 C-10.04128906 5.81457031 -10.04128906 5.81457031 -11 6 C-5.30769231 0 -5.30769231 0 0 0 Z " fill="#484848" transform="translate(267,254)"/>
<path d="M0 0 C0.99 0 1.98 0 3 0 C2.38461538 5.53846154 2.38461538 5.53846154 0.4375 7.875 C-0.036875 8.24625 -0.51125 8.6175 -1 9 C-2.25541557 5.23375329 -1.37061958 3.62811066 0 0 Z " fill="#404040" transform="translate(203,276)"/>
<path d="M0 0 C-1.15173355 2.46800047 -2.04783565 4.04783565 -4 6 C-5.32 6 -6.64 6 -8 6 C-8 5.34 -8 4.68 -8 4 C-2.58823529 0 -2.58823529 0 0 0 Z " fill="#A3C660" transform="translate(118,240)"/>
<path d="M0 0 C3.48331435 3.01887244 4.79157144 5.56909529 6 10 C5.01 9.67 4.02 9.34 3 9 C2.05078125 6.93359375 2.05078125 6.93359375 1.3125 4.4375 C1.06113281 3.61121094 0.80976563 2.78492188 0.55078125 1.93359375 C0.36902344 1.29550781 0.18726563 0.65742188 0 0 Z " fill="#A0C563" transform="translate(148,246)"/>
<path d="M0 0 C-0.33 0.99 -0.66 1.98 -1 3 C-3.0625 3.6875 -3.0625 3.6875 -5 4 C-5.33 2.68 -5.66 1.36 -6 0 C-3.50907189 -1.24546405 -2.58919267 -0.7767578 0 0 Z " fill="#212121" transform="translate(312,255)"/>
<path d="M0 0 C0.99 0.33 1.98 0.66 3 1 C2.54625 1.598125 2.0925 2.19625 1.625 2.8125 C0.36704087 4.50590652 -0.82984724 6.24477086 -2 8 C-2.6875 5.6875 -2.6875 5.6875 -3 3 C-1.5625 1.1875 -1.5625 1.1875 0 0 Z " fill="#1D1D1D" transform="translate(298,260)"/>
<path d="M0 0 C0.99 0.33 1.98 0.66 3 1 C3 1.66 3 2.32 3 3 C-0.9813783 4.3271261 -4.85045227 4.06915913 -9 4 C-9 3.67 -9 3.34 -9 3 C-7.88625 2.87625 -6.7725 2.7525 -5.625 2.625 C-1.96896323 2.3534187 -1.96896323 2.3534187 0 0 Z " fill="#585858" transform="translate(316,288)"/>
<path d="M0 0 C0.66 0.33 1.32 0.66 2 1 C2 1.66 2 2.32 2 3 C3.65 3.33 5.3 3.66 7 4 C5 5 3 6 1 7 C-0.0625 4.625 -0.0625 4.625 -1 2 C-0.67 1.34 -0.34 0.68 0 0 Z " fill="#666666" transform="translate(386,277)"/>
<path d="M0 0 C0.99 0.33 1.98 0.66 3 1 C2.25 6.75 2.25 6.75 0 9 C0 6.03 0 3.06 0 0 Z " fill="#1A1A1A" transform="translate(170,266)"/>
<path d="M0 0 C1.48117801 0.28127421 2.95993249 0.57533732 4.4375 0.875 C5.67306641 1.11863281 5.67306641 1.11863281 6.93359375 1.3671875 C7.61550781 1.57601563 8.29742187 1.78484375 9 2 C9.33 2.66 9.66 3.32 10 4 C6.28111761 3.49287967 3.26545761 2.88391785 0 1 C0 0.67 0 0.34 0 0 Z " fill="#AFCE72" transform="translate(114,287)"/>
<path d="M0 0 C2.475 0.495 2.475 0.495 5 1 C5 1.99 5 2.98 5 4 C3.35 3.67 1.7 3.34 0 3 C0 2.01 0 1.02 0 0 Z " fill="#85C21F" transform="translate(129,285)"/>
<path d="M0 0 C2.98704569 0.49784095 4.39324263 1.26216175 7 3 C4.69 3.33 2.38 3.66 0 4 C-0.33 3.01 -0.66 2.02 -1 1 C-0.67 0.67 -0.34 0.34 0 0 Z " fill="#212121" transform="translate(186,282)"/>
<path d="M0 0 C1.98 0 3.96 0 6 0 C5.67 0.66 5.34 1.32 5 2 C4.01 2.33 3.02 2.66 2 3 C0.79117904 5.00016466 0.79117904 5.00016466 0 7 C0 4.69 0 2.38 0 0 Z " fill="#181818" transform="translate(170,240)"/>
<path d="" fill="#FFFFFF" transform="translate(0,0)"/>
<path d="" fill="#FFFFFF" transform="translate(0,0)"/>
<path d="" fill="#FFFFFF" transform="translate(0,0)"/>
<path d="" fill="#FFFFFF" transform="translate(0,0)"/>
<path d="" fill="#FFFFFF" transform="translate(0,0)"/>
<path d="" fill="#FFFFFF" transform="translate(0,0)"/>
<path d="" fill="#FFFFFF" transform="translate(0,0)"/>
<path d="" fill="#FFFFFF" transform="translate(0,0)"/>
<path d="" fill="#FFFFFF" transform="translate(0,0)"/>
<path d="" fill="#FFFFFF" transform="translate(0,0)"/>
<path d="" fill="#FFFFFF" transform="translate(0,0)"/>
<path d="" fill="#FFFFFF" transform="translate(0,0)"/>
<path d="" fill="#FFFFFF" transform="translate(0,0)"/>
<path d="" fill="#FFFFFF" transform="translate(0,0)"/>
<path d="" fill="#FFFFFF" transform="translate(0,0)"/>
<path d="" fill="#FFFFFF" transform="translate(0,0)"/>
<path d="" fill="#FFFFFF" transform="translate(0,0)"/>
<path d="" fill="#FFFFFF" transform="translate(0,0)"/>
<path d="" fill="#FFFFFF" transform="translate(0,0)"/>
<path d="" fill="#FFFFFF" transform="translate(0,0)"/>
<path d="" fill="#FFFFFF" transform="translate(0,0)"/>
<path d="" fill="#FFFFFF" transform="translate(0,0)"/>
<path d="" fill="#FFFFFF" transform="translate(0,0)"/>
<path d="" fill="#FFFFFF" transform="translate(0,0)"/>
<path d="" fill="#FFFFFF" transform="translate(0,0)"/>
<path d="" fill="#FFFFFF" transform="translate(0,0)"/>
<path d="" fill="#FFFFFF" transform="translate(0,0)"/>
<path d="" fill="#FFFFFF" transform="translate(0,0)"/>
<path d="" fill="#FFFFFF" transform="translate(0,0)"/>
<path d="" fill="#FFFFFF" transform="translate(0,0)"/>
<path d="" fill="#FFFFFF" transform="translate(0,0)"/>
<path d="" fill="#FFFFFF" transform="translate(0,0)"/>
<path d="" fill="#FFFFFF" transform="translate(0,0)"/>
<path d="" fill="#FFFFFF" transform="translate(0,0)"/>
<path d="" fill="#FFFFFF" transform="translate(0,0)"/>
<path d="" fill="#FFFFFF" transform="translate(0,0)"/>
<path d="" fill="#FFFFFF" transform="translate(0,0)"/>
<path d="" fill="#FFFFFF" transform="translate(0,0)"/>
<path d="" fill="#FFFFFF" transform="translate(0,0)"/>
<path d="" fill="#FFFFFF" transform="translate(0,0)"/>
<path d="" fill="#FFFFFF" transform="translate(0,0)"/>
<path d="" fill="#FFFFFF" transform="translate(0,0)"/>
<path d="" fill="#FFFFFF" transform="translate(0,0)"/>
<path d="" fill="#FFFFFF" transform="translate(0,0)"/>
<path d="" fill="#FFFFFF" transform="translate(0,0)"/>
<path d="" fill="#FFFFFF" transform="translate(0,0)"/>
<path d="" fill="#FFFFFF" transform="translate(0,0)"/>
<path d="" fill="#FFFFFF" transform="translate(0,0)"/>
<path d="" fill="#FFFFFF" transform="translate(0,0)"/>
<path d="" fill="#FFFFFF" transform="translate(0,0)"/>
<path d="" fill="#FFFFFF" transform="translate(0,0)"/>
<path d="" fill="#FFFFFF" transform="translate(0,0)"/>
<path d="" fill="#FFFFFF" transform="translate(0,0)"/>
<path d="" fill="#FFFFFF" transform="translate(0,0)"/>
<path d="" fill="#FFFFFF" transform="translate(0,0)"/>
<path d="" fill="#FFFFFF" transform="translate(0,0)"/>
<path d="" fill="#FFFFFF" transform="translate(0,0)"/>
<path d="" fill="#FFFFFF" transform="translate(0,0)"/>
<path d="" fill="#FFFFFF" transform="translate(0,0)"/>
<path d="" fill="#FFFFFF" transform="translate(0,0)"/>
<path d="" fill="#FFFFFF" transform="translate(0,0)"/>
<path d="" fill="#FFFFFF" transform="translate(0,0)"/>
<path d="" fill="#FFFFFF" transform="translate(0,0)"/>
<path d="" fill="#FFFFFF" transform="translate(0,0)"/>
<path d="" fill="#FFFFFF" transform="translate(0,0)"/>
<path d="" fill="#FFFFFF" transform="translate(0,0)"/>
<path d="" fill="#FFFFFF" transform="translate(0,0)"/>
<path d="" fill="#FFFFFF" transform="translate(0,0)"/>
<path d="" fill="#FFFFFF" transform="translate(0,0)"/>
<path d="" fill="#FFFFFF" transform="translate(0,0)"/>
<path d="" fill="#FFFFFF" transform="translate(0,0)"/>
<path d="" fill="#FFFFFF" transform="translate(0,0)"/>
<path d="" fill="#FFFFFF" transform="translate(0,0)"/>
<path d="" fill="#FFFFFF" transform="translate(0,0)"/>
<path d="" fill="#FFFFFF" transform="translate(0,0)"/>
<path d="" fill="#FFFFFF" transform="translate(0,0)"/>
<path d="" fill="#FFFFFF" transform="translate(0,0)"/>
<path d="" fill="#FFFFFF" transform="translate(0,0)"/>
<path d="" fill="#FFFFFF" transform="translate(0,0)"/>
<path d="" fill="#FFFFFF" transform="translate(0,0)"/>
<path d="" fill="#FFFFFF" transform="translate(0,0)"/>
<path d="" fill="#FFFFFF" transform="translate(0,0)"/>
<path d="" fill="#FFFFFF" transform="translate(0,0)"/>
<path d="" fill="#FFFFFF" transform="translate(0,0)"/>
<path d="" fill="#FFFFFF" transform="translate(0,0)"/>
<path d="" fill="#FFFFFF" transform="translate(0,0)"/>
<path d="" fill="#FFFFFF" transform="translate(0,0)"/>
</svg>
