<?xml version="1.0" encoding="UTF-8"?>
<svg version="1.1" xmlns="http://www.w3.org/2000/svg" width="500" height="500">
<path d="M0 0 C7.34311484 5.14667872 12.07796948 11.1290899 14 20 C14.01933594 20.79921875 14.03867188 21.5984375 14.05859375 22.421875 C14.11969073 27.6056726 14.11969073 27.6056726 16.69921875 31.9140625 C18.11269766 33.05843175 19.54414367 34.18094429 20.9921875 35.28125 C26.46756399 39.96834272 27.72201841 46.7754136 28.3125 53.625 C28.25035713 60.1500018 25.577942 66.63308699 22 72 C21.34 72 20.68 72 20 72 C20 72.66 20 73.32 20 74 C19.34 74 18.68 74 18 74 C18 74.66 18 75.32 18 76 C16.75264433 76.6509259 15.50198168 77.29551669 14.25 77.9375 C13.55390625 78.29714844 12.8578125 78.65679687 12.140625 79.02734375 C5.61405254 81.99288488 -2.4680348 82.12682438 -9.25 79.875 C-16.80836304 76.57596039 -21.7488629 70.72738791 -25.25 63.375 C-26.38490403 58.26793187 -26.15173188 53.20946126 -26 48 C-27.32 47.67 -28.64 47.34 -30 47 C-30 46.34 -30 45.68 -30 45 C-30.5775 44.79375 -31.155 44.5875 -31.75 44.375 C-36.63707183 41.3884561 -38.47944575 36.28944941 -40 31 C-41.29974456 21.37689123 -39.43037982 14.01914182 -34 6 C-25.83763857 -4.04903865 -11.21237035 -5.55726558 0 0 Z M-25 11 C-25 11.66 -25 12.32 -25 13 C-25.66 13 -26.32 13 -27 13 C-29.73970154 18.07961831 -31.76384637 22.26719006 -30.61328125 28.078125 C-29.27094082 32.28469502 -27.57921273 35.99105854 -23.75 38.4375 C-23.1725 38.623125 -22.595 38.80875 -22 39 C-21.34 37.68 -20.68 36.36 -20 35 C-19.34 35 -18.68 35 -18 35 C-18 34.34 -18 33.68 -18 33 C-17.34 33 -16.68 33 -16 33 C-16 32.34 -16 31.68 -16 31 C-9.3672785 28.73516827 -2.97469469 26.85404425 4 26 C3.97251429 19.93940082 3.08954174 15.87266825 -1.1875 11.44140625 C-4.9122649 8.47925485 -8.91202894 7.30555674 -13.5625 6.625 C-17.69906373 7.26139442 -21.28544668 9.14272334 -25 11 Z M-8.75 39.5 C-9.4925 40.325 -10.235 41.15 -11 42 C-7.22454612 40.90931332 -4.52956528 40.0916909 -2 37 C-6.12612615 36.55155147 -6.12612615 36.55155147 -8.75 39.5 Z M9 39 C6.60179695 41.63684747 6.60179695 41.63684747 6 45 C4.9171875 45.4021875 4.9171875 45.4021875 3.8125 45.8125 C1.00594476 46.89744777 1.00594476 46.89744777 -1.28125 48.5 C-4.35075052 50.19351753 -6.85390046 50.69341435 -10.3125 51.1875 C-11.38113281 51.34605469 -12.44976562 51.50460937 -13.55078125 51.66796875 C-14.35902344 51.77753906 -15.16726562 51.88710938 -16 52 C-16.57900343 57.5584329 -15.60531742 60.67531498 -12.40625 65.26953125 C-9.19770501 69.21782411 -6.01260469 70.15775695 -1.125 70.875 C4.46636277 71.25660636 8.34257134 70.22454435 12.7265625 66.5546875 C16.43547696 62.77546187 17.86822495 59.48521167 18.1015625 54.19921875 C17.79604969 47.58369147 15.48132167 43.59335471 11 39 C10.34 39 9.68 39 9 39 Z " fill="#151616" transform="translate(128,211)"/>
<path d="M0 0 C1.93769114 1.93769114 1.18730709 5.57498443 1.203125 8.21875 C1.20882507 8.95065552 1.21452515 9.68256104 1.22039795 10.43664551 C1.22986861 11.9935562 1.23639009 13.55048712 1.24023438 15.10742188 C1.24984739 17.4626117 1.28080976 19.81689375 1.3125 22.171875 C1.43834901 39.57577366 1.43834901 39.57577366 -3.6484375 46.12109375 C-9.58576928 50.64797341 -14.28892668 52.94001656 -22 52 C-28.61482023 49.86980365 -32.43054579 46.81419375 -35.8125 40.75 C-37.72154324 34.72144241 -38.00775325 29.59933882 -35.375 23.75 C-32.75007097 19.17460288 -29.74615554 15.94867192 -24.63671875 14.18359375 C-18.59019477 12.72472074 -16.5030611 13.14198254 -10 15 C-10 10.05 -10 5.1 -10 0 C-5.66473162 -0.86705368 -4.00869538 -1.11352649 0 0 Z M-24.4375 25.5625 C-26.51858903 28.80899889 -26.93249957 31.15247539 -27 35 C-26.17020292 37.91078244 -26.17020292 37.91078244 -24 40 C-19.94983522 41.83403688 -17.95036911 42.30483537 -13.6875 40.9375 C-10.59494973 38.70798701 -9.75923671 37.71182391 -9 34 C-9.30514002 30.27528604 -9.30514002 30.27528604 -10 27 C-10.66 27 -11.32 27 -12 27 C-12 26.34 -12 25.68 -12 25 C-16.13807719 22.93096141 -20.63879309 23.12743147 -24.4375 25.5625 Z " fill="#222222" transform="translate(329,240)"/>
<path d="M0 0 C3.3 0 6.6 0 10 0 C10 4.95 10 9.9 10 15 C11.299375 14.608125 12.59875 14.21625 13.9375 13.8125 C19.30789494 12.6200186 23.12041108 13.60767236 28 16 C32.35685203 18.84142524 34.89364375 21.98266478 36.6875 26.875 C37.60036677 33.08249407 37.22188634 38.56638971 34 44 C29.33951806 49.13543551 25.67606122 51.71722606 18.75 52.25 C13.48717339 51.89914489 9.13609036 50.99738319 5.1953125 47.3125 C0.41920642 41.82797627 -0.14097872 38.31215196 -0.09765625 31.0546875 C-0.0962413 30.1696756 -0.09482635 29.2846637 -0.09336853 28.37283325 C-0.0877614 25.54018809 -0.07520771 22.70762136 -0.0625 19.875 C-0.05748592 17.95703239 -0.05292285 16.03906354 -0.04882812 14.12109375 C-0.03778966 9.41403218 -0.02052025 4.7070294 0 0 Z M11 26 C9.62663439 30.12009682 8.99864533 34.99729065 11 39 C11.66 39 12.32 39 13 39 C13 39.66 13 40.32 13 41 C16.69650201 41.96813148 18.61363154 42.14117309 22.25 40.8125 C25.64525031 38.60593298 25.64525031 38.60593298 27 35 C26.86339823 31.17515054 26.50903182 28.76354773 24.375 25.5625 C20.17122384 22.79685779 15.08368816 23.01576634 11 26 Z " fill="#202020" transform="translate(170,240)"/>
<path d="M0 0 C0.66 1.32 1.32 2.64 2 4 C3.80714199 5.68513353 3.80714199 5.68513353 5.875 7.25 C12.49993461 12.85293926 14.58364829 19.17032014 15.3125 27.625 C15.25035713 34.1500018 12.577942 40.63308699 9 46 C8.34 46 7.68 46 7 46 C7 46.66 7 47.32 7 48 C6.34 48 5.68 48 5 48 C5 48.66 5 49.32 5 50 C3.75264433 50.6509259 2.50198168 51.29551669 1.25 51.9375 C0.55390625 52.29714844 -0.1421875 52.65679687 -0.859375 53.02734375 C-7.38594746 55.99288488 -15.4680348 56.12682438 -22.25 53.875 C-29.80836304 50.57596039 -34.7488629 44.72738791 -38.25 37.375 C-39.39444442 32.22500011 -39.11708561 27.26885261 -39 22 C-33.72 22.99 -28.44 23.98 -23 25 C-23 25.33 -23 25.66 -23 26 C-24.98 26 -26.96 26 -29 26 C-27.40417881 34.84546091 -27.40417881 34.84546091 -21.9375 41.75 C-16.31192556 44.14386146 -11.07495248 44.57826545 -5.1875 42.9375 C-0.92882397 40.348893 2.21261322 37.82532905 3.59765625 32.85546875 C4.52753803 26.58143884 3.74358018 21.45190963 0 16.1875 C-1.30251929 14.76286953 -2.63505889 13.36494111 -4 12 C-2.68 8.04 -1.36 4.08 0 0 Z " fill="#8CBB3C" transform="translate(141,237)"/>
<path d="M0 0 C2.97 0 5.94 0 9 0 C9.33 4.95 9.66 9.9 10 15 C11.299375 14.608125 12.59875 14.21625 13.9375 13.8125 C19.29060036 12.6322889 23.17057638 13.49133053 28 16 C32.1676146 19.26161143 34.60514475 22.91360754 36 28 C36.35043429 31.98851437 36.28432977 35.9376856 36.1875 39.9375 C36.16719727 41.53561523 36.16719727 41.53561523 36.14648438 43.16601562 C36.11135144 45.77756391 36.05755189 48.38884957 36 51 C32.7 51 29.4 51 26 51 C25.96261719 49.45828125 25.92523438 47.9165625 25.88671875 46.328125 C25.8210592 44.302059 25.75461186 42.27601842 25.6875 40.25 C25.66494141 39.23421875 25.64238281 38.2184375 25.61914062 37.171875 C25.5659668 35.70234375 25.5659668 35.70234375 25.51171875 34.203125 C25.48553467 33.30239258 25.45935059 32.40166016 25.43237305 31.47363281 C24.92184978 28.55289778 24.03679692 27.13238667 22 25 C19.49119384 24.51738333 19.49119384 24.51738333 16.8125 24.75 C15.46091797 24.80414063 15.46091797 24.80414063 14.08203125 24.859375 C13.39496094 24.90578125 12.70789063 24.9521875 12 25 C9.95595455 33.7784452 9.78232358 42.03898756 10 51 C6.7 51 3.4 51 0 51 C0 34.17 0 17.34 0 0 Z " fill="#191919" transform="translate(335,240)"/>
<path d="M0 0 C3.91651253 5.2925845 5.41407406 10.38491439 5 17 C3.37313431 23.37610094 0.44468097 27.40651056 -5 31 C-10.73612653 33.56295015 -15.67913505 33.80029826 -21.625 31.75 C-26.82157781 29.05547817 -30.37375154 26.73646856 -32.4921875 21.05078125 C-34.10334611 14.54417918 -33.6231131 8.57846497 -30.2578125 2.75390625 C-26.84763096 -2.00128478 -22.8091466 -4.71040078 -17.14453125 -5.84765625 C-10.67976177 -6.30690217 -4.88403425 -4.20254109 0 0 Z M-22 8 C-23.04188774 12.30646932 -23.4491891 14.70858134 -22 18.875 C-19.18681884 21.86400498 -17.04204147 22.45192658 -13 23 C-9.7254419 21.88788593 -7.76200995 20.92766429 -5.5625 18.25 C-4.71558236 14.86232946 -5.15786006 12.36855977 -6 9 C-7.41666667 6.41666667 -7.41666667 6.41666667 -10 5 C-14.52444898 4.18244043 -18.99997979 4.15997413 -22 8 Z " fill="#222222" transform="translate(243,259)"/>
<path d="M0 0 C4.66030838 5.85611893 3.86749366 12.82703091 3.75390625 19.921875 C3.74488281 20.99179687 3.73585938 22.06171875 3.7265625 23.1640625 C3.70310088 25.79176356 3.66723321 28.41934872 3.62890625 31.046875 C0.32890625 31.046875 -2.97109375 31.046875 -6.37109375 31.046875 C-6.40847656 29.50515625 -6.44585937 27.9634375 -6.484375 26.375 C-6.55003455 24.348934 -6.61648189 22.32289342 -6.68359375 20.296875 C-6.70615234 19.28109375 -6.72871094 18.2653125 -6.75195312 17.21875 C-6.80512695 15.74921875 -6.80512695 15.74921875 -6.859375 14.25 C-6.88555908 13.34926758 -6.91174316 12.44853516 -6.9387207 11.52050781 C-7.44924397 8.59977278 -8.33429683 7.17926167 -10.37109375 5.046875 C-12.87989991 4.56425833 -12.87989991 4.56425833 -15.55859375 4.796875 C-16.45964844 4.83296875 -17.36070312 4.8690625 -18.2890625 4.90625 C-18.97613281 4.95265625 -19.66320312 4.9990625 -20.37109375 5.046875 C-21.36565284 8.03055226 -21.56669007 10.2472942 -21.6875 13.37109375 C-21.72939453 14.39912109 -21.77128906 15.42714844 -21.81445312 16.48632812 C-21.85376953 17.55818359 -21.89308594 18.63003906 -21.93359375 19.734375 C-21.97677734 20.81783203 -22.01996094 21.90128906 -22.06445312 23.01757812 C-22.17056117 25.69385885 -22.2713343 28.37035011 -22.37109375 31.046875 C-25.67109375 31.046875 -28.97109375 31.046875 -32.37109375 31.046875 C-32.51747584 27.04726601 -32.60552698 23.04835442 -32.68359375 19.046875 C-32.72548828 17.92152344 -32.76738281 16.79617188 -32.81054688 15.63671875 C-32.91529096 8.47222358 -32.24890089 3.49941129 -27.37109375 -1.953125 C-18.09876503 -9.647185 -8.47631748 -7.46600893 0 0 Z " fill="#252525" transform="translate(284.37109375,259.953125)"/>
<path d="M0 0 C3.3 0 6.6 0 10 0 C10.03738281 1.38574219 10.07476562 2.77148438 10.11328125 4.19921875 C10.17895394 6.02867231 10.24540083 7.8580982 10.3125 9.6875 C10.33505859 10.59951172 10.35761719 11.51152344 10.38085938 12.45117188 C10.62497192 19.23188311 10.62497192 19.23188311 14 25 C17.47465065 25.96107358 20.38358785 26 24 26 C24 25.34 24 24.68 24 24 C24.66 24 25.32 24 26 24 C26.33 16.08 26.66 8.16 27 0 C30.3 0 33.6 0 37 0 C37.1085765 3.66747276 37.18759858 7.33168806 37.25 11 C37.28351563 12.02996094 37.31703125 13.05992187 37.3515625 14.12109375 C37.43462244 20.64129925 36.82861045 25.59101906 33 31 C28.73747688 35.15322765 25.03585607 36.83581806 19.125 37.3125 C13.63655781 37.14712321 9.57537132 35.21733239 5.25 31.875 C-0.01111491 25.15246428 -0.42407276 17.70541458 -0.1875 9.4375 C-0.17396484 8.52419922 -0.16042969 7.61089844 -0.14648438 6.66992188 C-0.11155921 4.44635273 -0.05777046 2.22309291 0 0 Z " fill="#222222" transform="translate(375,255)"/>
<path d="M0 0 C2.21896087 1.53094631 4.03509933 3.13586347 6 5 C3.24622446 8.05975061 1.09162548 10.16307661 -3 11 C-4.78125 10.4140625 -4.78125 10.4140625 -6.75 9.5625 C-12.39005304 7.15294993 -17.39511305 8.09626371 -23.0625 10.0625 C-23.701875 10.371875 -24.34125 10.68125 -25 11 C-25 11.66 -25 12.32 -25 13 C-25.66 13 -26.32 13 -27 13 C-29.72993797 19.66289946 -31.10468001 24.93824457 -28.21875 31.87890625 C-27.9403125 32.47574219 -27.661875 33.07257813 -27.375 33.6875 C-25.93402604 37.15893727 -25.83524791 38.50574374 -27 42 C-27.66 42 -28.32 42 -29 42 C-29 41.34 -29 40.68 -29 40 C-29.66 40 -30.32 40 -31 40 C-31 41.65 -31 43.3 -31 45 C-36.49833163 40.26532554 -39.37378188 35.18013973 -40.45703125 27.94921875 C-40.93737673 18.62157983 -38.28255437 11.2724392 -32.39453125 4.0234375 C-23.69016798 -4.37079406 -10.54732781 -4.97258917 0 0 Z " fill="#1F1F1F" transform="translate(128,211)"/>
<path d="M0 0 C2.3125 0.5625 2.3125 0.5625 5 2 C8.59498547 8.17252222 8.35703152 13.934544 8.1875 20.9375 C8.17396484 22.00291016 8.16042969 23.06832031 8.14648438 24.16601562 C8.11135144 26.77756391 8.05755189 29.38884957 8 32 C4.7 32 1.4 32 -2 32 C-2.03738281 30.46988281 -2.07476562 28.93976563 -2.11328125 27.36328125 C-2.17894943 25.34633 -2.24539648 23.32940401 -2.3125 21.3125 C-2.34633789 19.80139648 -2.34633789 19.80139648 -2.38085938 18.25976562 C-2.5861098 11.13974475 -2.5861098 11.13974475 -6 5 C-4.02 3.35 -2.04 1.7 0 0 Z " fill="#232323" transform="translate(363,259)"/>
<path d="M0 0 C-0.875 6.75 -0.875 6.75 -2 9 C-2.66 9 -3.32 9 -4 9 C-4.33 10.32 -4.66 11.64 -5 13 C-6.0828125 12.62875 -6.0828125 12.62875 -7.1875 12.25 C-8.115625 12.1675 -9.04375 12.085 -10 12 C-10.7425 12.639375 -11.485 13.27875 -12.25 13.9375 C-15.67067373 16.5030053 -17.66822778 16.40782967 -21.81640625 16.3359375 C-24.2069531 15.96816106 -25.90615292 15.18698814 -28 14 C-26.91926148 11.83852297 -25.80636736 10.58960328 -24 9 C-23.34 9 -22.68 9 -22 9 C-22 8.34 -22 7.68 -22 7 C-21.34 7 -20.68 7 -20 7 C-20 6.34 -20 5.68 -20 5 C-13.02845161 1.28068759 -8.00937866 -0.15704664 0 0 Z " fill="#89B53A" transform="translate(132,237)"/>
<path d="M0 0 C3.3 0 6.6 0 10 0 C10 6.93 10 13.86 10 21 C7 22 7 22 5 21.0625 C4.01 20.5365625 4.01 20.5365625 3 20 C2.01 20 1.02 20 0 20 C0 13.4 0 6.8 0 0 Z " fill="#1B1B1B" transform="translate(375,255)"/>
<path d="M0 0 C0.66 0 1.32 0 2 0 C1.53954317 7.14501977 0.66747364 12.84445518 -4.9375 17.8125 C-7.50381774 19.6455841 -8.93541402 20.64639393 -12 21 C-13 15.25 -13 15.25 -13 13 C-12.67 12.67 -12.34 12.34 -12 12 C-13.32 11.67 -14.64 11.34 -16 11 C-15.21625 10.71125 -14.4325 10.4225 -13.625 10.125 C-10.90328368 9.15087746 -10.90328368 9.15087746 -9 7 C-8.34 7 -7.68 7 -7 7 C-4.36069431 6.01026037 -3.23764736 5.41275594 -1.8125 2.9375 C-1.544375 2.298125 -1.27625 1.65875 -1 1 C-0.67 0.67 -0.34 0.34 0 0 Z " fill="#242424" transform="translate(246,270)"/>
<path d="M0 0 C0.66 0.33 1.32 0.66 2 1 C2.61187038 3.38629447 3 5.53540571 3 8 C3.02320313 8.76570313 3.04640625 9.53140625 3.0703125 10.3203125 C3.18659052 16.28371395 2.72429148 21.28828448 1 27 C-0.65 27 -2.3 27 -4 27 C-4 26.34 -4 25.68 -4 25 C-4.66 24.67 -5.32 24.34 -6 24 C-5.67854004 23.4337793 -5.35708008 22.86755859 -5.02587891 22.28417969 C-3.92710244 19.83768931 -3.69398432 18.11827998 -3.5859375 15.453125 C-3.54726562 14.60878906 -3.50859375 13.76445312 -3.46875 12.89453125 C-3.4378125 12.02183594 -3.406875 11.14914062 -3.375 10.25 C-3.33632812 9.36183594 -3.29765625 8.47367187 -3.2578125 7.55859375 C-3.16379127 5.3726002 -3.07813857 3.18660938 -3 1 C-2.01 0.67 -1.02 0.34 0 0 Z " fill="#87BC2A" transform="translate(150,253)"/>
<path d="M0 0 C6.53027013 0.74070194 10.55525512 2.71247724 15.46875 7.05078125 C17.27735381 9.35306008 17.64363468 11.12432987 18 14 C17.01 14 16.02 14 15 14 C12.59233908 14.52667583 10.34334297 15.21888568 8 16 C7.62875 15.360625 7.2575 14.72125 6.875 14.0625 C4.41947207 11.36141928 2.55421195 11.31592995 -1 11 C0.32 10.34 1.64 9.68 3 9 C2.87625 7.700625 2.7525 6.40125 2.625 5.0625 C2.55539062 4.33160156 2.48578125 3.60070312 2.4140625 2.84765625 C2.27742188 2.23792969 2.14078125 1.62820312 2 1 C1.34 0.67 0.68 0.34 0 0 Z " fill="#2D2D2D" transform="translate(269,253)"/>
<path d="M0 0 C0.99 0.33 1.98 0.66 3 1 C3 1.66 3 2.32 3 3 C5.90624297 3.73989213 8.82150775 4.41650906 11.75 5.0625 C12.54921875 5.23910156 13.3484375 5.41570312 14.171875 5.59765625 C14.77515625 5.73042969 15.3784375 5.86320313 16 6 C15.67 6.66 15.34 7.32 15 8 C14.01 8 13.02 8 12 8 C11.67 8.66 11.34 9.32 11 10 C10.34 10 9.68 10 9 10 C9 10.66 9 11.32 9 12 C10.32 12.33 11.64 12.66 13 13 C9.15047502 14.28317499 7.30411791 13.50690379 3.4375 12.375 C2.28121094 12.05273438 1.12492187 11.73046875 -0.06640625 11.3984375 C-3 10 -3 10 -4.46484375 7.4765625 C-5 5 -5 5 -4 3 C-3.34 3 -2.68 3 -2 3 C-2 3.66 -2 4.32 -2 5 C-1.34 5 -0.68 5 0 5 C-0.2784375 4.0409375 -0.2784375 4.0409375 -0.5625 3.0625 C-0.706875 2.381875 -0.85125 1.70125 -1 1 C-0.67 0.67 -0.34 0.34 0 0 Z " fill="#22261E" transform="translate(101,248)"/>
<path d="M0 0 C1.0625 1.875 1.0625 1.875 2 4 C1.67 4.66 1.34 5.32 1 6 C0.34 6 -0.32 6 -1 6 C-1 6.66 -1 7.32 -1 8 C-1.66 8 -2.32 8 -3 8 C-3 8.66 -3 9.32 -3 10 C-4.24735567 10.6509259 -5.49801832 11.29551669 -6.75 11.9375 C-7.44609375 12.29714844 -8.1421875 12.65679687 -8.859375 13.02734375 C-12.90176577 14.8641235 -16.3209906 15.1152263 -20.75 15.0625 C-21.73484375 15.05347656 -22.7196875 15.04445313 -23.734375 15.03515625 C-24.48203125 15.02355469 -25.2296875 15.01195312 -26 15 C-26 14.67 -26 14.34 -26 14 C-25.37351562 13.95101563 -24.74703125 13.90203125 -24.1015625 13.8515625 C-23.28429687 13.77679688 -22.46703125 13.70203125 -21.625 13.625 C-20.81289062 13.55539062 -20.00078125 13.48578125 -19.1640625 13.4140625 C-16.79665809 13.17107412 -16.79665809 13.17107412 -15 11 C-15 9.68 -15 8.36 -15 7 C-13.906875 6.566875 -12.81375 6.13375 -11.6875 5.6875 C-8.86209702 4.49126084 -7.07431202 3.29266065 -5 1 C-4.34 1 -3.68 1 -3 1 C-3 1.66 -3 2.32 -3 3 C-2.01 3 -1.02 3 0 3 C0 2.01 0 1.02 0 0 Z " fill="#91C03F" transform="translate(149,277)"/>
<path d="M0 0 C2.64 0 5.28 0 8 0 C8.66 2.97 9.32 5.94 10 9 C7.68880208 9.45572917 5.37760417 9.91145833 3.06640625 10.3671875 C2.38449219 10.57601563 1.70257813 10.78484375 1 11 C0.67 11.66 0.34 12.32 0 13 C0 12.34 0 11.68 0 11 C-0.99 11 -1.98 11 -3 11 C-3.33 10.34 -3.66 9.68 -4 9 C-4.99 9 -5.98 9 -7 9 C-6.67 8.01 -6.34 7.02 -6 6 C-5.175 5.690625 -4.35 5.38125 -3.5 5.0625 C-2.675 4.711875 -1.85 4.36125 -1 4 C-0.11306697 1.95894361 -0.11306697 1.95894361 0 0 Z " fill="#171717" transform="translate(263,254)"/>
<path d="M0 0 C0.66 0.33 1.32 0.66 2 1 C1.67 1.99 1.34 2.98 1 4 C1.39397335 6.63804589 1.39397335 6.63804589 2 9 C2.99 9.33 3.98 9.66 5 10 C1.88610696 11.81643761 -0.40777709 12.2719038 -4 12.25 C-5.2684375 12.25773437 -5.2684375 12.25773437 -6.5625 12.265625 C-9.13478811 11.98531155 -10.7803108 11.2948187 -13 10 C-13 9.34 -13 8.68 -13 8 C-12.34 8 -11.68 8 -11 8 C-10.67 7.01 -10.34 6.02 -10 5 C-9.01 5 -8.02 5 -7 5 C-8.32 4.34 -9.64 3.68 -11 3 C-10.28972656 2.86722656 -9.57945313 2.73445312 -8.84765625 2.59765625 C-7.92855469 2.42105469 -7.00945312 2.24445313 -6.0625 2.0625 C-5.14597656 1.88847656 -4.22945312 1.71445313 -3.28515625 1.53515625 C-1.04710156 1.22285012 -1.04710156 1.22285012 0 0 Z " fill="#1D1D1E" transform="translate(123,250)"/>
<path d="M0 0 C0.33 0 0.66 0 1 0 C2.65363331 6.73264991 2.65363331 6.73264991 0.9765625 9.984375 C-2.76949363 14.62234926 -6.97146919 17.52334177 -13.046875 18.2421875 C-17.12764327 18.38025861 -20.35570166 17.82214917 -24 16 C-24 15.34 -24 14.68 -24 14 C-25.32 14 -26.64 14 -28 14 C-28.33 12.68 -28.66 11.36 -29 10 C-28.39414063 10.30035156 -27.78828125 10.60070312 -27.1640625 10.91015625 C-20.88622832 13.75932715 -15.73817466 15.03306994 -9 13 C-5.47328015 10.96703546 -3.26014863 8.39022294 -1 5 C-0.61500109 3.34450469 -0.27206865 1.6777567 0 0 Z " fill="#96BE4B" transform="translate(145,267)"/>
<path d="M0 0 C0.99 0 1.98 0 3 0 C3 0.66 3 1.32 3 2 C7.29 2.66 11.58 3.32 16 4 C16.33 5.32 16.66 6.64 17 8 C13.90219052 10.06520632 13.0459519 10.29477024 9.5 10.3125 C8.33984375 10.33763672 8.33984375 10.33763672 7.15625 10.36328125 C4.47805462 9.91206355 3.58936451 9.17518797 2 7 C2 6.01 2 5.02 2 4 C1.34 3.67 0.68 3.34 0 3 C0 2.01 0 1.02 0 0 Z " fill="#87BC27" transform="translate(118,281)"/>
<path d="M0 0 C0.66 1.32 1.32 2.64 2 4 C3.47400635 5.50714904 3.47400635 5.50714904 5.125 6.75 C6.07375 7.4925 7.0225 8.235 8 9 C7.375 10.9375 7.375 10.9375 6 13 C1.51900084 14.36378235 0.31912995 14.15956497 -4 12 C-2.68 8.04 -1.36 4.08 0 0 Z " fill="#93B853" transform="translate(141,237)"/>
<path d="M0 0 C0.375 2.6875 0.375 2.6875 0 6 C-1.823983 8.06398076 -3.72763839 9.39041053 -6 11 C-6.33 9.68 -6.66 8.36 -7 7 C-8.65 7 -10.3 7 -12 7 C-10.70989008 4.12206249 -9.42638194 2.03816083 -7 0 C-3.86650268 -1.04449911 -3.01031744 -0.93423645 0 0 Z " fill="#181818" transform="translate(204,278)"/>
<path d="M0 0 C2 2 2 2 2.25 4.5 C2 7 2 7 0 9 C-0.46486718 12.12196336 -0.46486718 12.12196336 -0.625 15.625 C-0.69976562 16.81351562 -0.77453125 18.00203125 -0.8515625 19.2265625 C-0.90054688 20.14179688 -0.94953125 21.05703125 -1 22 C-1.33 22 -1.66 22 -2 22 C-2.18175781 21.11957031 -2.36351562 20.23914063 -2.55078125 19.33203125 C-2.80214844 18.17058594 -3.05351562 17.00914062 -3.3125 15.8125 C-3.55613281 14.66394531 -3.79976562 13.51539063 -4.05078125 12.33203125 C-4.96876924 9.10962896 -6.14019342 6.76626693 -8 4 C-3.25 3 -3.25 3 -1 3 C-0.67 2.01 -0.34 1.02 0 0 Z " fill="#95BF4A" transform="translate(148,247)"/>
<path d="M0 0 C7.425 0.99 7.425 0.99 15 2 C15 2.33 15 2.66 15 3 C13.02 3 11.04 3 9 3 C9.66 6.63 10.32 10.26 11 14 C8.03 13.505 8.03 13.505 5 13 C5.33 9.7 5.66 6.4 6 3 C3.03 2.505 3.03 2.505 0 2 C0 1.34 0 0.68 0 0 Z " fill="#89AC49" transform="translate(103,260)"/>
<path d="M0 0 C1.32 0.33 2.64 0.66 4 1 C1.98053184 5.5703753 -0.23234491 8.7033018 -4 12 C-4.99 12.33 -5.98 12.66 -7 13 C-7.66 12.67 -8.32 12.34 -9 12 C-9 10.68 -9 9.36 -9 8 C-7.68 8 -6.36 8 -5 8 C-5 7.01 -5 6.02 -5 5 C-3.68 4.67 -2.36 4.34 -1 4 C-0.67 2.68 -0.34 1.36 0 0 Z " fill="#282B29" transform="translate(135,246)"/>
<path d="M0 0 C3.3 0.33 6.6 0.66 10 1 C9.67 1.66 9.34 2.32 9 3 C8.01 3 7.02 3 6 3 C5.67 3.66 5.34 4.32 5 5 C4.34 5 3.68 5 3 5 C3 5.66 3 6.32 3 7 C4.32 7.33 5.64 7.66 7 8 C3.71023192 9.09658936 2.28696233 8.79953138 -1 8 C-1.625 6.25 -1.625 6.25 -2 4 C-1.34 2.68 -0.68 1.36 0 0 Z " fill="#0E1509" transform="translate(107,253)"/>
<path d="M0 0 C0 1.65 0 3.3 0 5 C-0.33 4.01 -0.66 3.02 -1 2 C-2.98 2 -4.96 2 -7 2 C-7 2.66 -7 3.32 -7 4 C-8.03125 4.12375 -9.0625 4.2475 -10.125 4.375 C-13.62116846 4.93889814 -16.68397627 5.78682059 -20 7 C-20 6.34 -20 5.68 -20 5 C-13.02845161 1.28068759 -8.00937866 -0.15704664 0 0 Z " fill="#A2C267" transform="translate(132,237)"/>
<path d="M0 0 C0.66 0.33 1.32 0.66 2 1 C0.35 2.65 -1.3 4.3 -3 6 C-2.67 6.33 -2.34 6.66 -2 7 C-1.63837971 8.32594105 -1.30271961 9.65938457 -1 11 C-2.65 11 -4.3 11 -6 11 C-6.99 14.465 -6.99 14.465 -8 18 C-8.33 18 -8.66 18 -9 18 C-9.66183521 11.64638202 -7.95286122 7.97187077 -4 3 C-1.6875 1 -1.6875 1 0 0 Z " fill="#393939" transform="translate(261,255)"/>
<path d="M0 0 C1.98 0 3.96 0 6 0 C5.49396008 2.16874252 5.00016187 3.99967627 4 6 C2.39125 5.7215625 2.39125 5.7215625 0.75 5.4375 C-2.40391546 5.0695432 -4.09818492 4.95534657 -7 6 C-6.67 5.01 -6.34 4.02 -6 3 C-4.02 2.67 -2.04 2.34 0 2 C0 1.34 0 0.68 0 0 Z " fill="#87BB29" transform="translate(125,239)"/>
<path d="M0 0 C2.475 0.495 2.475 0.495 5 1 C5.08096803 2.45742463 5.13917774 3.91612807 5.1875 5.375 C5.22230469 6.18710937 5.25710937 6.99921875 5.29296875 7.8359375 C5.19628906 8.55007813 5.09960938 9.26421875 5 10 C4.01 10.66 3.02 11.32 2 12 C0.26043342 10.26043342 0.62809614 7.8063378 0.4375 5.4375 C0.35371094 4.42558594 0.26992187 3.41367187 0.18359375 2.37109375 C0.12300781 1.58863281 0.06242187 0.80617188 0 0 Z " fill="#85BA27" transform="translate(104,262)"/>
<path d="M0 0 C0.763125 0.495 1.52625 0.99 2.3125 1.5 C4.92363751 3.24368308 4.92363751 3.24368308 8 3 C8 3.99 8 4.98 8 6 C2.58461538 7.23076923 2.58461538 7.23076923 -0.375 6.0625 C-0.91125 5.711875 -1.4475 5.36125 -2 5 C-1.34 3.35 -0.68 1.7 0 0 Z " fill="#7EA533" transform="translate(139,244)"/>
<path d="M0 0 C2.33399551 3.50099327 2.61720314 5.91605594 3.1875 10.0625 C3.36667969 11.31160156 3.54585938 12.56070312 3.73046875 13.84765625 C4 17 4 17 3 19 C-0.44572039 12.68284595 -0.31461385 7.09629025 0 0 Z " fill="#A9C76F" transform="translate(102,259)"/>
<path d="M0 0 C2.0625 1.75 2.0625 1.75 4 4 C3.75 6.25 3.75 6.25 3 8 C1.02 8.33 -0.96 8.66 -3 9 C-4.0625 7.125 -4.0625 7.125 -5 5 C-4.67 4.34 -4.34 3.68 -4 3 C-3.34 3 -2.68 3 -2 3 C-2 3.66 -2 4.32 -2 5 C-1.34 5 -0.68 5 0 5 C-0.2784375 4.0409375 -0.2784375 4.0409375 -0.5625 3.0625 C-0.706875 2.381875 -0.85125 1.70125 -1 1 C-0.67 0.67 -0.34 0.34 0 0 Z " fill="#0E0F0E" transform="translate(101,248)"/>
<path d="M0 0 C1.9375 0.6875 1.9375 0.6875 4 2 C4.75 4.625 4.75 4.625 5 7 C3.02 7 1.04 7 -1 7 C-1 6.34 -1 5.68 -1 5 C-1.99 5 -2.98 5 -4 5 C-4 4.34 -4 3.68 -4 3 C-2 1.375 -2 1.375 0 0 Z " fill="#87B82F" transform="translate(112,246)"/>
<path d="M0 0 C-0.41153737 4.97093824 -0.79600832 9.44508386 -3 14 C-4.32 13.34 -5.64 12.68 -7 12 C-6.34 11.67 -5.68 11.34 -5 11 C-4.67 10.01 -4.34 9.02 -4 8 C-3.34 8 -2.68 8 -2 8 C-2.34786708 6.02463255 -2.34786708 6.02463255 -3 4 C-3.66 3.67 -4.32 3.34 -5 3 C-2.25 0 -2.25 0 0 0 Z " fill="#393939" transform="translate(248,270)"/>
<path d="M0 0 C2.66666667 1.33333333 5.33333333 2.66666667 8 4 C5.94766315 6.2477975 4.99332739 7.0022242 2 8 C1.34 5.36 0.68 2.72 0 0 Z M2 9 C0.02 9.99 0.02 9.99 -2 11 C-2.66 10.34 -3.32 9.68 -4 9 C-1.50907189 7.75453595 -0.58919267 8.2232422 2 9 Z " fill="#333334" transform="translate(302,278)"/>
<path d="M0 0 C2 2 2 2 2.125 5.625 C2.08375 6.73875 2.0425 7.8525 2 9 C1.4225 8.175 0.845 7.35 0.25 6.5 C-0.86375 5.2625 -0.86375 5.2625 -2 4 C-3.32 4 -4.64 4 -6 4 C-6 5.65 -6 7.3 -6 9 C-6.33 9 -6.66 9 -7 9 C-7 7.02 -7 5.04 -7 3 C-6.21625 2.690625 -5.4325 2.38125 -4.625 2.0625 C-2.07669872 1.07124962 -2.07669872 1.07124962 0 0 Z " fill="#090909" transform="translate(285,265)"/>
<path d="M0 0 C0.33 0 0.66 0 1 0 C1.19294408 4.82360189 0.75747614 8.49646738 -1 13 C-1.103125 12.360625 -1.20625 11.72125 -1.3125 11.0625 C-1.539375 10.381875 -1.76625 9.70125 -2 9 C-2.99 8.67 -3.98 8.34 -5 8 C-4.01 6.68 -3.02 5.36 -2 4 C-1.34 4.33 -0.68 4.66 0 5 C0 3.35 0 1.7 0 0 Z " fill="#4A4A4A" transform="translate(206,269)"/>
<path d="M0 0 C0.99 0.33 1.98 0.66 3 1 C3 2.65 3 4.3 3 6 C3.66 6.33 4.32 6.66 5 7 C-0.53846154 6.38461538 -0.53846154 6.38461538 -2.875 4.4375 C-3.24625 3.963125 -3.6175 3.48875 -4 3 C-3.01 2.67 -2.02 2.34 -1 2 C-0.67 1.34 -0.34 0.68 0 0 Z " fill="#9FC45A" transform="translate(118,284)"/>
<path d="M0 0 C1.0625 1.875 1.0625 1.875 2 4 C1.67 4.66 1.34 5.32 1 6 C0.34 6 -0.32 6 -1 6 C-1 6.66 -1 7.32 -1 8 C-1.66 8 -2.32 8 -3 8 C-3 8.66 -3 9.32 -3 10 C-3.66 10 -4.32 10 -5 10 C-5 9.34 -5 8.68 -5 8 C-5.66 7.67 -6.32 7.34 -7 7 C-5.68 7 -4.36 7 -3 7 C-3 5.68 -3 4.36 -3 3 C-2.01 3 -1.02 3 0 3 C0 2.01 0 1.02 0 0 Z " fill="#9EC155" transform="translate(149,277)"/>
<path d="M0 0 C0.33 0.99 0.66 1.98 1 3 C1.66 3.33 2.32 3.66 3 4 C2.34 4 1.68 4 1 4 C0.67 4.66 0.34 5.32 0 6 C-1.64363134 6.72159424 -3.31050386 7.39351421 -5 8 C-5 6.68 -5 5.36 -5 4 C-4.34 4 -3.68 4 -3 4 C-3 3.01 -3 2.02 -3 1 C-2.01 0.67 -1.02 0.34 0 0 Z " fill="#131314" transform="translate(242,271)"/>
<path d="M0 0 C0.66 0.33 1.32 0.66 2 1 C1.25 2.9375 1.25 2.9375 0 5 C-2.125 5.75 -2.125 5.75 -4 6 C-4 5.34 -4 4.68 -4 4 C-6.31 4 -8.62 4 -11 4 C-11 3.67 -11 3.34 -11 3 C-10.28972656 2.86722656 -9.57945313 2.73445312 -8.84765625 2.59765625 C-7.92855469 2.42105469 -7.00945312 2.24445313 -6.0625 2.0625 C-4.68771484 1.80146484 -4.68771484 1.80146484 -3.28515625 1.53515625 C-1.04710156 1.22285012 -1.04710156 1.22285012 0 0 Z M-6 6 C-4 7 -4 7 -4 7 Z " fill="#3D4037" transform="translate(123,250)"/>
<path d="M0 0 C0.66 0 1.32 0 2 0 C1.6875 1.9375 1.6875 1.9375 1 4 C0.01 4.33 -0.98 4.66 -2 5 C-2 5.66 -2 6.32 -2 7 C-1.01 7 -0.02 7 1 7 C1 7.66 1 8.32 1 9 C-1.38564077 8.42415568 -3.66682784 7.77772405 -6 7 C-4.91926148 4.83852297 -3.80636736 3.58960328 -2 2 C-1.34 2 -0.68 2 0 2 C0 1.34 0 0.68 0 0 Z " fill="#A3BC6F" transform="translate(110,244)"/>
<path d="M0 0 C0.33 0 0.66 0 1 0 C2.3370565 7.41458607 2.3370565 7.41458607 0.8125 10.0625 C-1 11 -1 11 -3.1875 10.6875 C-3.785625 10.460625 -4.38375 10.23375 -5 10 C-4.360625 9.278125 -3.72125 8.55625 -3.0625 7.8125 C-1.01326465 5.01808816 -0.38667054 3.38336726 0 0 Z " fill="#A3C367" transform="translate(145,267)"/>
<path d="M0 0 C0.33 0 0.66 0 1 0 C2.125 7.75 2.125 7.75 1 10 C-1.5625 10.625 -1.5625 10.625 -4 11 C-4 10.34 -4 9.68 -4 9 C-3.34 9 -2.68 9 -2 9 C-1.34 6.03 -0.68 3.06 0 0 Z " fill="#182408" transform="translate(132,237)"/>
<path d="M0 0 C0.99 0.33 1.98 0.66 3 1 C2.67 2.65 2.34 4.3 2 6 C0.68 6.33 -0.64 6.66 -2 7 C-1.67 6.34 -1.34 5.68 -1 5 C-1.33 4.01 -1.66 3.02 -2 2 C-1.34 2 -0.68 2 0 2 C0 1.34 0 0.68 0 0 Z " fill="#2C2C2C" transform="translate(195,284)"/>
<path d="M0 0 C1.65 0 3.3 0 5 0 C5 1.32 5 2.64 5 4 C4.01 4.33 3.02 4.66 2 5 C1.34 4.67 0.68 4.34 0 4 C0 2.68 0 1.36 0 0 Z " fill="#1C1C1E" transform="translate(126,254)"/>
<path d="M0 0 C0.66 0 1.32 0 2 0 C2 0.66 2 1.32 2 2 C3.32 2 4.64 2 6 2 C6.33 3.65 6.66 5.3 7 7 C3.17053157 5.54744301 1.87949705 3.57104439 0 0 Z " fill="#9DBC57" transform="translate(107,280)"/>
<path d="M0 0 C2.475 0.495 2.475 0.495 5 1 C4 4 4 4 2 6 C0 3 0 3 0 0 Z " fill="#454545" transform="translate(293,278)"/>
<path d="M0 0 C0.66 0.66 1.32 1.32 2 2 C1.625 5.625 1.625 5.625 1 9 C0.34 9 -0.32 9 -1 9 C-1.09765625 2.84765625 -1.09765625 2.84765625 -1 1 C-0.67 0.67 -0.34 0.34 0 0 Z " fill="#0A0A0A" transform="translate(212,269)"/>
<path d="M0 0 C3.2542015 2.83430453 4.5206753 4.68607774 5 9 C4.01 9.495 4.01 9.495 3 10 C2.49596232 8.70990357 1.99690074 7.41786211 1.5 6.125 C1.2215625 5.40570313 0.943125 4.68640625 0.65625 3.9453125 C0 2 0 2 0 0 Z " fill="#A5C56F" transform="translate(149,247)"/>
<path d="M0 0 C0 0.99 0 1.98 0 3 C-1.65 3.33 -3.3 3.66 -5 4 C-5.33 3.01 -5.66 2.02 -6 1 C-3 0 -3 0 0 0 Z " fill="#83BB25" transform="translate(147,247)"/>
<path d="M0 0 C1.98 0.495 1.98 0.495 4 1 C3.01 2.98 2.02 4.96 1 7 C-1 4 -1 4 -0.625 1.8125 C-0.41875 1.214375 -0.2125 0.61625 0 0 Z " fill="#1D2317" transform="translate(135,246)"/>
<path d="M0 0 C1.2077558 3.62326739 0.54311128 4.64146369 -1 8 C-2.32 7.34 -3.64 6.68 -5 6 C-4.34 5.67 -3.68 5.34 -3 5 C-2.67 4.01 -2.34 3.02 -2 2 C-1.34 2 -0.68 2 0 2 C0 1.34 0 0.68 0 0 Z " fill="#464646" transform="translate(246,276)"/>
<path d="M0 0 C4.95 1.98 4.95 1.98 10 4 C10 4.33 10 4.66 10 5 C7.03 4.67 4.06 4.34 1 4 C0.67 2.68 0.34 1.36 0 0 Z " fill="#B2C977" transform="translate(116,277)"/>
<path d="M0 0 C0.66 0.33 1.32 0.66 2 1 C0.35 2.65 -1.3 4.3 -3 6 C-3.99 5.67 -4.98 5.34 -6 5 C-4.02 3.35 -2.04 1.7 0 0 Z " fill="#535353" transform="translate(261,255)"/>
<path d="M0 0 C1.32 0.99 2.64 1.98 4 3 C1.525 4.485 1.525 4.485 -1 6 C-1.625 4.125 -1.625 4.125 -2 2 C-1.34 1.34 -0.68 0.68 0 0 Z " fill="#98BE53" transform="translate(118,246)"/>
<path d="" fill="#FFFFFF" transform="translate(0,0)"/>
<path d="" fill="#FFFFFF" transform="translate(0,0)"/>
<path d="" fill="#FFFFFF" transform="translate(0,0)"/>
<path d="" fill="#FFFFFF" transform="translate(0,0)"/>
<path d="" fill="#FFFFFF" transform="translate(0,0)"/>
<path d="" fill="#FFFFFF" transform="translate(0,0)"/>
<path d="" fill="#FFFFFF" transform="translate(0,0)"/>
<path d="" fill="#FFFFFF" transform="translate(0,0)"/>
<path d="" fill="#FFFFFF" transform="translate(0,0)"/>
<path d="" fill="#FFFFFF" transform="translate(0,0)"/>
<path d="" fill="#FFFFFF" transform="translate(0,0)"/>
<path d="" fill="#FFFFFF" transform="translate(0,0)"/>
<path d="" fill="#FFFFFF" transform="translate(0,0)"/>
<path d="" fill="#FFFFFF" transform="translate(0,0)"/>
<path d="" fill="#FFFFFF" transform="translate(0,0)"/>
<path d="" fill="#FFFFFF" transform="translate(0,0)"/>
<path d="" fill="#FFFFFF" transform="translate(0,0)"/>
<path d="" fill="#FFFFFF" transform="translate(0,0)"/>
<path d="" fill="#FFFFFF" transform="translate(0,0)"/>
<path d="" fill="#FFFFFF" transform="translate(0,0)"/>
<path d="" fill="#FFFFFF" transform="translate(0,0)"/>
<path d="" fill="#FFFFFF" transform="translate(0,0)"/>
<path d="" fill="#FFFFFF" transform="translate(0,0)"/>
<path d="" fill="#FFFFFF" transform="translate(0,0)"/>
<path d="" fill="#FFFFFF" transform="translate(0,0)"/>
<path d="" fill="#FFFFFF" transform="translate(0,0)"/>
<path d="" fill="#FFFFFF" transform="translate(0,0)"/>
<path d="" fill="#FFFFFF" transform="translate(0,0)"/>
<path d="" fill="#FFFFFF" transform="translate(0,0)"/>
<path d="" fill="#FFFFFF" transform="translate(0,0)"/>
<path d="" fill="#FFFFFF" transform="translate(0,0)"/>
<path d="" fill="#FFFFFF" transform="translate(0,0)"/>
<path d="" fill="#FFFFFF" transform="translate(0,0)"/>
<path d="" fill="#FFFFFF" transform="translate(0,0)"/>
<path d="" fill="#FFFFFF" transform="translate(0,0)"/>
<path d="" fill="#FFFFFF" transform="translate(0,0)"/>
<path d="" fill="#FFFFFF" transform="translate(0,0)"/>
<path d="" fill="#FFFFFF" transform="translate(0,0)"/>
<path d="" fill="#FFFFFF" transform="translate(0,0)"/>
<path d="" fill="#FFFF00" transform="translate(0,0)"/>
<path d="" fill="#FFFFFF" transform="translate(0,0)"/>
<path d="" fill="#FFFFFF" transform="translate(0,0)"/>
<path d="" fill="#FFFFFF" transform="translate(0,0)"/>
<path d="" fill="#FFFFFF" transform="translate(0,0)"/>
<path d="" fill="#FFFFFF" transform="translate(0,0)"/>
<path d="" fill="#FFFFFF" transform="translate(0,0)"/>
<path d="" fill="#FFFFFF" transform="translate(0,0)"/>
<path d="" fill="#FFFFFF" transform="translate(0,0)"/>
<path d="" fill="#FFFFFF" transform="translate(0,0)"/>
<path d="" fill="#FFFFFF" transform="translate(0,0)"/>
<path d="" fill="#FFFFFF" transform="translate(0,0)"/>
<path d="" fill="#FFFFFF" transform="translate(0,0)"/>
<path d="" fill="#FFFFFF" transform="translate(0,0)"/>
<path d="" fill="#FFFFFF" transform="translate(0,0)"/>
<path d="" fill="#FFFFFF" transform="translate(0,0)"/>
<path d="" fill="#FFFFFF" transform="translate(0,0)"/>
<path d="" fill="#FFFFFF" transform="translate(0,0)"/>
<path d="" fill="#FFFFFF" transform="translate(0,0)"/>
<path d="" fill="#FFFFFF" transform="translate(0,0)"/>
<path d="" fill="#FFFFFF" transform="translate(0,0)"/>
<path d="" fill="#FFFFFF" transform="translate(0,0)"/>
<path d="" fill="#FFFFFF" transform="translate(0,0)"/>
<path d="" fill="#FFFFFF" transform="translate(0,0)"/>
<path d="" fill="#FFFFFF" transform="translate(0,0)"/>
<path d="" fill="#FFFFFF" transform="translate(0,0)"/>
<path d="" fill="#FFFFFF" transform="translate(0,0)"/>
<path d="" fill="#FFFFFF" transform="translate(0,0)"/>
<path d="" fill="#FFFFFF" transform="translate(0,0)"/>
<path d="" fill="#FFFFFF" transform="translate(0,0)"/>
<path d="" fill="#FFFFFF" transform="translate(0,0)"/>
<path d="" fill="#FFFFFF" transform="translate(0,0)"/>
<path d="" fill="#FFFFFF" transform="translate(0,0)"/>
<path d="" fill="#FFFFFF" transform="translate(0,0)"/>
<path d="" fill="#FFFFFF" transform="translate(0,0)"/>
<path d="" fill="#FFFFFF" transform="translate(0,0)"/>
<path d="" fill="#FFFFFF" transform="translate(0,0)"/>
<path d="" fill="#FFFFFF" transform="translate(0,0)"/>
<path d="" fill="#FFFFFF" transform="translate(0,0)"/>
<path d="" fill="#FFFFFF" transform="translate(0,0)"/>
<path d="" fill="#FFFFFF" transform="translate(0,0)"/>
<path d="" fill="#FFFFFF" transform="translate(0,0)"/>
<path d="" fill="#FFFFFF" transform="translate(0,0)"/>
</svg>
